{
  "source": "C:\\Users\\Peter\\Desktop\\stuff\\MIUN\\quantitative_research\\video_compression\\videos\\BVI-HD\\BVI-HD_CDVL_videos\\ORIG\\Bookcase_1920x1080_60fps.mp4",
  "output": "C:\\Users\\Peter\\Desktop\\stuff\\MIUN\\quantitative_research\\video_compression\\compressed_videos\\BVI-HD\\hevc\\3\\Bookcase_1920x1080_60fps_hevc.mp4",
  "codec": "hevc",
  "ok": "Input #0, mov,mp4,m4a,3gp,3g2,mj2, from 'C:\\Users\\Peter\\Desktop\\stuff\\MIUN\\quantitative_research\\video_compression\\videos\\BVI-HD\\BVI-HD_CDVL_videos\\ORIG\\Bookcase_1920x1080_60fps.mp4':\n  Metadata:\n    major_brand     : isom\n    minor_version   : 512\n    compatible_brands: isomiso2avc1mp41\n    encoder         : Lavf54.28.101\n  Duration: 00:00:05.00, start: 0.000000, bitrate: 336321 kb/s\n  Stream #0:0[0x1](und): Video: h264 (High 4:4:4 Predictive) (avc1 / 0x31637661), yuv420p(progressive), 1920x1080, 336316 kb/s, 60 fps, 60 tbr, 60 tbn (default)\n    Metadata:\n      handler_name    : VideoHandler\n      vendor_id       : [0][0][0][0]\n[out#0/mp4 @ 0000016ea311ac40] Codec AVOption b:a (set bitrate (in bits/s)) has not been used for any stream. The most likely reason is either wrong type (e.g. a video option with no video streams) or that it is a private option of some decoder which was not actually used for any stream.\nStream mapping:\n  Stream #0:0 -> #0:0 (h264 (native) -> hevc (libx265))\nPress [q] to stop, [?] for help\n[libx265 @ 0000016ea37b0580] Unknown option: \"aq-mode.\nx265 [info]: HEVC encoder version 4.1+190-8f11c33ac\nx265 [info]: build info [Windows][GCC 15.1.0][64 bit] 10bit\nx265 [info]: using cpu capabilities: MMX2 SSE2Fast LZCNT SSSE3 SSE4.2 AVX FMA3 BMI2 AVX2\nx265 [info]: Main 10 profile, Level-4.1 (Main tier)\nx265 [info]: Thread pool created using 12 threads\nx265 [info]: Slices                              : 1\nx265 [info]: frame threads / pool features       : 3 / wpp(17 rows)\nx265 [info]: Coding QT: max CU size, min CU size : 64 / 8\nx265 [info]: Residual QT: max TU size, max depth : 32 / 1 inter / 1 intra\nx265 [info]: ME / range / subpel / merge         : star / 57 / 3 / 3\nx265 [info]: Keyframe min / max / scenecut / bias  : 25 / 250 / 40 / 5.00 \nx265 [info]: Lookahead / bframes / badapt        : 25 / 4 / 2\nx265 [info]: b-pyramid / weightp / weightb       : 1 / 1 / 0\nx265 [info]: References / ref-limit  cu / depth  : 4 / on / on\nx265 [info]: AQ: mode / str / qg-size / cu-tree  : 2 / 1.0 / 32 / 1\nx265 [info]: Rate Control / qCompress            : ABR-3000 kbps / 0.60\nx265 [info]: VBV/HRD buffer / max-rate / init    : 3000 / 3000 / 0.750\nx265 [info]: tools: rect limit-modes rd=4 psy-rd=2.00 rdoq=2 psy-rdoq=1.00\nx265 [info]: tools: rskip mode=1 signhide tmvp strong-intra-smoothing lslices=4\nx265 [info]: tools: deblock sao dhdr10-info\nOutput #0, mp4, to 'C:\\Users\\Peter\\Desktop\\stuff\\MIUN\\quantitative_research\\video_compression\\compressed_videos\\BVI-HD\\hevc\\3\\Bookcase_1920x1080_60fps_hevc.mp4':\n  Metadata:\n    major_brand     : isom\n    minor_version   : 512\n    compatible_brands: isomiso2avc1mp41\n    encoder         : Lavf62.3.100\n  Stream #0:0(und): Video: hevc (hev1 / 0x31766568), yuv420p10le(tv, progressive), 1920x1080, q=2-31, 3000 kb/s, 60 fps, 15360 tbn (default)\n    Metadata:\n      encoder         : Lavc62.11.100 libx265\n      handler_name    : VideoHandler\n      vendor_id       : [0][0][0][0]\n    Side data:\n      cpb: bitrate max/min/avg: 3000000/0/3000000 buffer size: 3000000 vbv_delay: N/A\nframe=    0 fps=0.0 q=0.0 size=       0KiB time=N/A bitrate=N/A speed=N/A elapsed=0:00:00.52    \nframe=    0 fps=0.0 q=0.0 size=       0KiB time=N/A bitrate=N/A speed=N/A elapsed=0:00:01.04    \nframe=    0 fps=0.0 q=0.0 size=       0KiB time=N/A bitrate=N/A speed=N/A elapsed=0:00:01.56    \nframe=    0 fps=0.0 q=0.0 size=       0KiB time=N/A bitrate=N/A speed=N/A elapsed=0:00:02.07    \nframe=    0 fps=0.0 q=0.0 size=       0KiB time=N/A bitrate=N/A speed=N/A elapsed=0:00:02.59    \nframe=    0 fps=0.0 q=0.0 size=       0KiB time=N/A bitrate=N/A speed=N/A elapsed=0:00:03.11    \nframe=    0 fps=0.0 q=0.0 size=       0KiB time=N/A bitrate=N/A speed=N/A elapsed=0:00:03.62    \nframe=    0 fps=0.0 q=0.0 size=       0KiB time=N/A bitrate=N/A speed=N/A elapsed=0:00:04.13    \nframe=    1 fps=0.2 q=34.8 size=       0KiB time=-00:00:00.01 bitrate=N/A speed=N/A elapsed=0:00:04.65    \nframe=    3 fps=0.6 q=43.9 size=       0KiB time=00:00:00.01 bitrate=  21.1kbits/s speed=0.00322x elapsed=0:00:05.17    \nframe=    3 fps=0.5 q=43.9 size=       0KiB time=00:00:00.01 bitrate=  21.1kbits/s speed=0.00293x elapsed=0:00:05.67    \nframe=    5 fps=0.8 q=42.0 size=       0KiB time=00:00:00.05 bitrate=   7.0kbits/s speed=0.00806x elapsed=0:00:06.20    \nframe=    5 fps=0.7 q=42.0 size=       0KiB time=00:00:00.05 bitrate=   7.0kbits/s speed=0.00745x elapsed=0:00:06.70    \nframe=    7 fps=1.0 q=37.3 size=       0KiB time=00:00:00.08 bitrate=   4.2kbits/s speed=0.0115x elapsed=0:00:07.23    \nframe=    8 fps=1.0 q=36.2 size=       0KiB time=00:00:00.10 bitrate=   3.5kbits/s speed=0.0129x elapsed=0:00:07.75    \nframe=    8 fps=1.0 q=36.2 size=       0KiB time=00:00:00.10 bitrate=   3.5kbits/s speed=0.0121x elapsed=0:00:08.25    \nframe=    8 fps=0.9 q=36.2 size=       0KiB time=00:00:00.10 bitrate=   3.5kbits/s speed=0.0114x elapsed=0:00:08.77    \nframe=   10 fps=1.1 q=35.0 size=       0KiB time=00:00:00.13 bitrate=   2.6kbits/s speed=0.0143x elapsed=0:00:09.29    \nframe=   11 fps=1.1 q=31.4 size=       0KiB time=00:00:00.15 bitrate=   2.3kbits/s speed=0.0153x elapsed=0:00:09.80    \nframe=   13 fps=1.3 q=36.4 size=       0KiB time=00:00:00.18 bitrate=   1.9kbits/s speed=0.0178x elapsed=0:00:10.32    \nframe=   13 fps=1.2 q=36.4 size=       0KiB time=00:00:00.18 bitrate=   1.9kbits/s speed=0.0169x elapsed=0:00:10.83    \nframe=   13 fps=1.1 q=36.4 size=       0KiB time=00:00:00.18 bitrate=   1.9kbits/s speed=0.0161x elapsed=0:00:11.35    \nframe=   14 fps=1.2 q=37.9 size=       0KiB time=00:00:00.20 bitrate=   1.8kbits/s speed=0.0168x elapsed=0:00:11.87    \nframe=   16 fps=1.3 q=31.1 size=       0KiB time=00:00:00.23 bitrate=   1.5kbits/s speed=0.0188x elapsed=0:00:12.38    \nframe=   18 fps=1.4 q=37.9 size=       0KiB time=00:00:00.26 bitrate=   1.3kbits/s speed=0.0207x elapsed=0:00:12.90    \nframe=   18 fps=1.3 q=37.9 size=       0KiB time=00:00:00.26 bitrate=   1.3kbits/s speed=0.0199x elapsed=0:00:13.42    \nframe=   18 fps=1.3 q=37.9 size=       0KiB time=00:00:00.26 bitrate=   1.3kbits/s speed=0.0191x elapsed=0:00:13.93    \nframe=   19 fps=1.3 q=36.9 size=       0KiB time=00:00:00.28 bitrate=   1.2kbits/s speed=0.0196x elapsed=0:00:14.45    \nframe=   20 fps=1.3 q=36.9 size=       0KiB time=00:00:00.30 bitrate=   1.2kbits/s speed=0.02x elapsed=0:00:14.97    \nframe=   21 fps=1.4 q=30.1 size=       0KiB time=00:00:00.31 bitrate=   1.1kbits/s speed=0.0204x elapsed=0:00:15.49    \nframe=   21 fps=1.3 q=30.1 size=       0KiB time=00:00:00.31 bitrate=   1.1kbits/s speed=0.0198x elapsed=0:00:16.01    \nframe=   22 fps=1.3 q=35.9 size=       0KiB time=00:00:00.33 bitrate=   1.1kbits/s speed=0.0202x elapsed=0:00:16.52    \nframe=   23 fps=1.3 q=36.9 size=       0KiB time=00:00:00.35 bitrate=   1.0kbits/s speed=0.0205x elapsed=0:00:17.04    \nframe=   24 fps=1.4 q=29.9 size=       0KiB time=00:00:00.36 bitrate=   1.0kbits/s speed=0.0209x elapsed=0:00:17.56    \nframe=   24 fps=1.3 q=29.9 size=       0KiB time=00:00:00.36 bitrate=   1.0kbits/s speed=0.0203x elapsed=0:00:18.06    \nframe=   25 fps=1.3 q=34.3 size=       0KiB time=00:00:00.38 bitrate=   0.9kbits/s speed=0.0206x elapsed=0:00:18.58    \nframe=   26 fps=1.4 q=36.8 size=       0KiB time=00:00:00.40 bitrate=   0.9kbits/s speed=0.0209x elapsed=0:00:19.10    \nframe=   27 fps=1.4 q=29.8 size=       0KiB time=00:00:00.41 bitrate=   0.8kbits/s speed=0.0212x elapsed=0:00:19.62    \nframe=   28 fps=1.4 q=31.5 size=       0KiB time=00:00:00.43 bitrate=   0.8kbits/s speed=0.0215x elapsed=0:00:20.13    \nframe=   29 fps=1.4 q=35.9 size=       0KiB time=00:00:00.45 bitrate=   0.8kbits/s speed=0.0218x elapsed=0:00:20.64    \nframe=   29 fps=1.4 q=35.9 size=       0KiB time=00:00:00.45 bitrate=   0.8kbits/s speed=0.0212x elapsed=0:00:21.17    \nframe=   29 fps=1.3 q=35.9 size=       0KiB time=00:00:00.45 bitrate=   0.8kbits/s speed=0.0207x elapsed=0:00:21.69    \nframe=   30 fps=1.4 q=29.2 size=       0KiB time=00:00:00.46 bitrate=   0.8kbits/s speed=0.021x elapsed=0:00:22.21    \nframe=   30 fps=1.3 q=29.2 size=       0KiB time=00:00:00.46 bitrate=   0.8kbits/s speed=0.0205x elapsed=0:00:22.72    \nframe=   31 fps=1.3 q=35.9 size=       0KiB time=00:00:00.48 bitrate=   0.7kbits/s speed=0.0208x elapsed=0:00:23.25    \nframe=   31 fps=1.3 q=35.9 size=       0KiB time=00:00:00.48 bitrate=   0.7kbits/s speed=0.0203x elapsed=0:00:23.75    \nframe=   32 fps=1.3 q=28.9 size=       0KiB time=00:00:00.50 bitrate=   0.7kbits/s speed=0.0206x elapsed=0:00:24.28    \nframe=   32 fps=1.3 q=28.9 size=       0KiB time=00:00:00.50 bitrate=   0.7kbits/s speed=0.0202x elapsed=0:00:24.78    \nframe=   32 fps=1.3 q=28.9 size=       0KiB time=00:00:00.50 bitrate=   0.7kbits/s speed=0.0198x elapsed=0:00:25.30    \nframe=   32 fps=1.2 q=28.9 size=       0KiB time=00:00:00.50 bitrate=   0.7kbits/s speed=0.0194x elapsed=0:00:25.81    \nframe=   33 fps=1.3 q=34.8 size=       0KiB time=00:00:00.51 bitrate=   0.7kbits/s speed=0.0196x elapsed=0:00:26.36    \nframe=   34 fps=1.3 q=28.5 size=       0KiB time=00:00:00.53 bitrate=   0.7kbits/s speed=0.0198x elapsed=0:00:26.88    \nframe=   35 fps=1.3 q=32.0 size=       0KiB time=00:00:00.55 bitrate=   0.6kbits/s speed=0.0201x elapsed=0:00:27.41    \nframe=   35 fps=1.3 q=32.0 size=       0KiB time=00:00:00.55 bitrate=   0.6kbits/s speed=0.0197x elapsed=0:00:27.92    \nframe=   35 fps=1.2 q=32.0 size=       0KiB time=00:00:00.55 bitrate=   0.6kbits/s speed=0.0193x elapsed=0:00:28.44    \nframe=   35 fps=1.2 q=32.0 size=       0KiB time=00:00:00.55 bitrate=   0.6kbits/s speed=0.019x elapsed=0:00:28.97    \nframe=   36 fps=1.2 q=33.5 size=       0KiB time=00:00:00.56 bitrate=   0.6kbits/s speed=0.0192x elapsed=0:00:29.52    \nframe=   36 fps=1.2 q=33.5 size=       0KiB time=00:00:00.56 bitrate=   0.6kbits/s speed=0.0188x elapsed=0:00:30.06    \nframe=   37 fps=1.2 q=32.5 size=       0KiB time=00:00:00.58 bitrate=   0.6kbits/s speed=0.0191x elapsed=0:00:30.60    \nframe=   37 fps=1.2 q=32.5 size=       0KiB time=00:00:00.58 bitrate=   0.6kbits/s speed=0.0187x elapsed=0:00:31.14    \nframe=   38 fps=1.2 q=28.3 size=       0KiB time=00:00:00.60 bitrate=   0.6kbits/s speed=0.019x elapsed=0:00:31.66    \nframe=   39 fps=1.2 q=31.9 size=       0KiB time=00:00:00.61 bitrate=   0.6kbits/s speed=0.0192x elapsed=0:00:32.18    \nframe=   40 fps=1.2 q=32.5 size=       0KiB time=00:00:00.63 bitrate=   0.6kbits/s speed=0.0194x elapsed=0:00:32.71    \nframe=   40 fps=1.2 q=32.5 size=       0KiB time=00:00:00.63 bitrate=   0.6kbits/s speed=0.019x elapsed=0:00:33.25    \nframe=   40 fps=1.2 q=32.5 size=       0KiB time=00:00:00.63 bitrate=   0.6kbits/s speed=0.0188x elapsed=0:00:33.77    \nframe=   40 fps=1.2 q=32.5 size=       0KiB time=00:00:00.63 bitrate=   0.6kbits/s speed=0.0185x elapsed=0:00:34.29    \nframe=   41 fps=1.2 q=32.1 size=       0KiB time=00:00:00.65 bitrate=   0.5kbits/s speed=0.0187x elapsed=0:00:34.80    \nframe=   41 fps=1.2 q=32.1 size=       0KiB time=00:00:00.65 bitrate=   0.5kbits/s speed=0.0184x elapsed=0:00:35.33    \nframe=   42 fps=1.2 q=32.1 size=       0KiB time=00:00:00.66 bitrate=   0.5kbits/s speed=0.0186x elapsed=0:00:35.85    \nframe=   42 fps=1.2 q=32.1 size=       0KiB time=00:00:00.66 bitrate=   0.5kbits/s speed=0.0183x elapsed=0:00:36.38    \nframe=   42 fps=1.1 q=32.1 size=       0KiB time=00:00:00.66 bitrate=   0.5kbits/s speed=0.0181x elapsed=0:00:36.90    \nframe=   43 fps=1.1 q=27.8 size=       0KiB time=00:00:00.68 bitrate=   0.5kbits/s speed=0.0183x elapsed=0:00:37.43    \nframe=   44 fps=1.2 q=31.6 size=       0KiB time=00:00:00.70 bitrate=   0.5kbits/s speed=0.0184x elapsed=0:00:37.94    \nframe=   44 fps=1.1 q=31.6 size=       0KiB time=00:00:00.70 bitrate=   0.5kbits/s speed=0.0182x elapsed=0:00:38.46    \nframe=   44 fps=1.1 q=31.6 size=       0KiB time=00:00:00.70 bitrate=   0.5kbits/s speed=0.018x elapsed=0:00:38.98    \nframe=   44 fps=1.1 q=31.6 size=       0KiB time=00:00:00.70 bitrate=   0.5kbits/s speed=0.0177x elapsed=0:00:39.49    \nframe=   44 fps=1.1 q=31.6 size=       0KiB time=00:00:00.70 bitrate=   0.5kbits/s speed=0.0175x elapsed=0:00:40.02    \nframe=   44 fps=1.1 q=31.6 size=       0KiB time=00:00:00.70 bitrate=   0.5kbits/s speed=0.0173x elapsed=0:00:40.57    \nframe=   45 fps=1.1 q=32.8 size=       0KiB time=00:00:00.71 bitrate=   0.5kbits/s speed=0.0174x elapsed=0:00:41.08    \nframe=   45 fps=1.1 q=32.8 size=       0KiB time=00:00:00.71 bitrate=   0.5kbits/s speed=0.0172x elapsed=0:00:41.61    \nframe=   46 fps=1.1 q=31.3 size=       0KiB time=00:00:00.73 bitrate=   0.5kbits/s speed=0.0174x elapsed=0:00:42.13    \nframe=   47 fps=1.1 q=27.6 size=       0KiB time=00:00:00.75 bitrate=   0.5kbits/s speed=0.0176x elapsed=0:00:42.69    \nframe=   47 fps=1.1 q=27.6 size=       0KiB time=00:00:00.75 bitrate=   0.5kbits/s speed=0.0173x elapsed=0:00:43.23    \nframe=   47 fps=1.1 q=27.6 size=       0KiB time=00:00:00.75 bitrate=   0.5kbits/s speed=0.0171x elapsed=0:00:43.75    \nframe=   48 fps=1.1 q=29.6 size=       0KiB time=00:00:00.76 bitrate=   0.5kbits/s speed=0.0173x elapsed=0:00:44.29    \nframe=   48 fps=1.1 q=29.6 size=       0KiB time=00:00:00.76 bitrate=   0.5kbits/s speed=0.0171x elapsed=0:00:44.82    \nframe=   48 fps=1.1 q=29.6 size=       0KiB time=00:00:00.76 bitrate=   0.5kbits/s speed=0.0169x elapsed=0:00:45.34    \nframe=   48 fps=1.0 q=29.6 size=       0KiB time=00:00:00.76 bitrate=   0.5kbits/s speed=0.0167x elapsed=0:00:45.85    \nframe=   49 fps=1.1 q=30.9 size=       0KiB time=00:00:00.78 bitrate=   0.4kbits/s speed=0.0169x elapsed=0:00:46.38    \nframe=   50 fps=1.1 q=31.4 size=       0KiB time=00:00:00.80 bitrate=   0.4kbits/s speed=0.0171x elapsed=0:00:46.90    \nframe=   50 fps=1.1 q=31.4 size=       0KiB time=00:00:00.80 bitrate=   0.4kbits/s speed=0.0169x elapsed=0:00:47.41    \nframe=   50 fps=1.0 q=31.4 size=       0KiB time=00:00:00.80 bitrate=   0.4kbits/s speed=0.0167x elapsed=0:00:47.98    \nframe=   50 fps=1.0 q=31.4 size=       0KiB time=00:00:00.80 bitrate=   0.4kbits/s speed=0.0165x elapsed=0:00:48.54    \nframe=   50 fps=1.0 q=31.4 size=       0KiB time=00:00:00.80 bitrate=   0.4kbits/s speed=0.0163x elapsed=0:00:49.08    \nframe=   51 fps=1.0 q=27.7 size=       0KiB time=00:00:00.81 bitrate=   0.4kbits/s speed=0.0165x elapsed=0:00:49.60    \nframe=   52 fps=1.0 q=31.9 size=     256KiB time=00:00:00.83 bitrate=2517.0kbits/s speed=0.0166x elapsed=0:00:50.12    \nframe=   52 fps=1.0 q=31.9 size=     256KiB time=00:00:00.83 bitrate=2517.0kbits/s speed=0.0165x elapsed=0:00:50.63    \nframe=   53 fps=1.0 q=31.8 size=     256KiB time=00:00:00.85 bitrate=2467.7kbits/s speed=0.0166x elapsed=0:00:51.15    \nframe=   53 fps=1.0 q=31.8 size=     256KiB time=00:00:00.85 bitrate=2467.7kbits/s speed=0.0164x elapsed=0:00:51.71    \nframe=   53 fps=1.0 q=31.8 size=     256KiB time=00:00:00.85 bitrate=2467.7kbits/s speed=0.0163x elapsed=0:00:52.23    \nframe=   53 fps=1.0 q=31.8 size=     256KiB time=00:00:00.85 bitrate=2467.7kbits/s speed=0.0161x elapsed=0:00:52.78    \nframe=   53 fps=1.0 q=31.8 size=     256KiB time=00:00:00.85 bitrate=2467.7kbits/s speed=0.0159x elapsed=0:00:53.35    \nframe=   54 fps=1.0 q=31.7 size=     256KiB time=00:00:00.86 bitrate=2420.2kbits/s speed=0.0161x elapsed=0:00:53.87    \nframe=   54 fps=1.0 q=31.7 size=     256KiB time=00:00:00.86 bitrate=2420.2kbits/s speed=0.0159x elapsed=0:00:54.40    \nframe=   55 fps=1.0 q=31.5 size=     256KiB time=00:00:00.88 bitrate=2374.5kbits/s speed=0.0161x elapsed=0:00:54.91    \nframe=   55 fps=1.0 q=31.5 size=     256KiB time=00:00:00.88 bitrate=2374.5kbits/s speed=0.0159x elapsed=0:00:55.43    \nframe=   55 fps=1.0 q=31.5 size=     256KiB time=00:00:00.88 bitrate=2374.5kbits/s speed=0.0158x elapsed=0:00:55.94    \nframe=   55 fps=1.0 q=31.5 size=     256KiB time=00:00:00.88 bitrate=2374.5kbits/s speed=0.0156x elapsed=0:00:56.46    \nframe=   57 fps=1.0 q=30.9 size=     256KiB time=00:00:00.91 bitrate=2288.2kbits/s speed=0.0161x elapsed=0:00:56.98    \nframe=   57 fps=1.0 q=30.9 size=     256KiB time=00:00:00.91 bitrate=2288.2kbits/s speed=0.0159x elapsed=0:00:57.49    \nframe=   57 fps=1.0 q=30.9 size=     256KiB time=00:00:00.91 bitrate=2288.2kbits/s speed=0.0158x elapsed=0:00:58.02    \nframe=   57 fps=1.0 q=30.9 size=     256KiB time=00:00:00.91 bitrate=2288.2kbits/s speed=0.0156x elapsed=0:00:58.58    \nframe=   58 fps=1.0 q=32.5 size=     256KiB time=00:00:00.93 bitrate=2247.3kbits/s speed=0.0158x elapsed=0:00:59.10    \nframe=   58 fps=1.0 q=32.5 size=     256KiB time=00:00:00.93 bitrate=2247.3kbits/s speed=0.0157x elapsed=0:00:59.63    \nframe=   58 fps=1.0 q=32.5 size=     256KiB time=00:00:00.93 bitrate=2247.3kbits/s speed=0.0155x elapsed=0:01:00.15    \nframe=   58 fps=1.0 q=32.5 size=     256KiB time=00:00:00.93 bitrate=2247.3kbits/s speed=0.0154x elapsed=0:01:00.71    \nframe=   59 fps=1.0 q=32.2 size=     256KiB time=00:00:00.95 bitrate=2207.9kbits/s speed=0.0155x elapsed=0:01:01.23    \nframe=   59 fps=1.0 q=32.2 size=     256KiB time=00:00:00.95 bitrate=2207.9kbits/s speed=0.0154x elapsed=0:01:01.76    \nframe=   59 fps=0.9 q=32.2 size=     256KiB time=00:00:00.95 bitrate=2207.9kbits/s speed=0.0152x elapsed=0:01:02.31    \nframe=   60 fps=1.0 q=28.1 size=     256KiB time=00:00:00.96 bitrate=2169.8kbits/s speed=0.0154x elapsed=0:01:02.83    \nframe=   60 fps=0.9 q=28.1 size=     256KiB time=00:00:00.96 bitrate=2169.8kbits/s speed=0.0153x elapsed=0:01:03.35    \nframe=   61 fps=1.0 q=31.7 size=     256KiB time=00:00:00.98 bitrate=2133.1kbits/s speed=0.0154x elapsed=0:01:03.88    \nframe=   61 fps=0.9 q=31.7 size=     256KiB time=00:00:00.98 bitrate=2133.1kbits/s speed=0.0153x elapsed=0:01:04.45    \nframe=   61 fps=0.9 q=31.7 size=     256KiB time=00:00:00.98 bitrate=2133.1kbits/s speed=0.0151x elapsed=0:01:04.96    \nframe=   61 fps=0.9 q=31.7 size=     256KiB time=00:00:00.98 bitrate=2133.1kbits/s speed=0.015x elapsed=0:01:05.47    \nframe=   61 fps=0.9 q=31.7 size=     256KiB time=00:00:00.98 bitrate=2133.1kbits/s speed=0.0149x elapsed=0:01:06.02    \nframe=   61 fps=0.9 q=31.7 size=     256KiB time=00:00:00.98 bitrate=2133.1kbits/s speed=0.0148x elapsed=0:01:06.55    \nframe=   62 fps=0.9 q=32.7 size=     256KiB time=00:00:01.00 bitrate=2097.5kbits/s speed=0.0149x elapsed=0:01:07.08    \nframe=   62 fps=0.9 q=32.7 size=     256KiB time=00:00:01.00 bitrate=2097.5kbits/s speed=0.0148x elapsed=0:01:07.62    \nframe=   62 fps=0.9 q=32.7 size=     256KiB time=00:00:01.00 bitrate=2097.5kbits/s speed=0.0147x elapsed=0:01:08.21    \nframe=   62 fps=0.9 q=32.7 size=     256KiB time=00:00:01.00 bitrate=2097.5kbits/s speed=0.0145x elapsed=0:01:08.86    \nframe=   62 fps=0.9 q=32.7 size=     256KiB time=00:00:01.00 bitrate=2097.5kbits/s speed=0.0144x elapsed=0:01:09.39    \nframe=   62 fps=0.9 q=32.7 size=     256KiB time=00:00:01.00 bitrate=2097.5kbits/s speed=0.0143x elapsed=0:01:10.01    \nframe=   62 fps=0.9 q=32.7 size=     256KiB time=00:00:01.00 bitrate=2097.5kbits/s speed=0.0142x elapsed=0:01:10.66    \nframe=   62 fps=0.9 q=32.7 size=     256KiB time=00:00:01.00 bitrate=2097.5kbits/s speed=0.014x elapsed=0:01:11.32    \nframe=   62 fps=0.9 q=32.7 size=     256KiB time=00:00:01.00 bitrate=2097.5kbits/s speed=0.0139x elapsed=0:01:11.87    \nframe=   62 fps=0.9 q=32.7 size=     256KiB time=00:00:01.00 bitrate=2097.5kbits/s speed=0.0138x elapsed=0:01:12.48    \nframe=   62 fps=0.8 q=32.7 size=     256KiB time=00:00:01.00 bitrate=2097.5kbits/s speed=0.0136x elapsed=0:01:13.28    \nframe=   63 fps=0.9 q=32.7 size=     256KiB time=00:00:01.01 bitrate=2063.1kbits/s speed=0.0137x elapsed=0:01:14.01    \nframe=   63 fps=0.8 q=32.7 size=     256KiB time=00:00:01.01 bitrate=2063.1kbits/s speed=0.0136x elapsed=0:01:14.77    \nframe=   63 fps=0.8 q=32.7 size=     256KiB time=00:00:01.01 bitrate=2063.1kbits/s speed=0.0135x elapsed=0:01:15.39    \nframe=   63 fps=0.8 q=32.7 size=     256KiB time=00:00:01.01 bitrate=2063.1kbits/s speed=0.0134x elapsed=0:01:16.05    \nframe=   63 fps=0.8 q=32.7 size=     256KiB time=00:00:01.01 bitrate=2063.1kbits/s speed=0.0133x elapsed=0:01:16.64    \nframe=   63 fps=0.8 q=32.7 size=     256KiB time=00:00:01.01 bitrate=2063.1kbits/s speed=0.0132x elapsed=0:01:17.24    \nframe=   63 fps=0.8 q=32.7 size=     256KiB time=00:00:01.01 bitrate=2063.1kbits/s speed=0.0131x elapsed=0:01:17.82    \nframe=   63 fps=0.8 q=32.7 size=     256KiB time=00:00:01.01 bitrate=2063.1kbits/s speed=0.013x elapsed=0:01:18.40    \nframe=   64 fps=0.8 q=27.8 size=     256KiB time=00:00:01.03 bitrate=2029.8kbits/s speed=0.0131x elapsed=0:01:18.96    \nframe=   64 fps=0.8 q=27.8 size=     256KiB time=00:00:01.03 bitrate=2029.8kbits/s speed=0.013x elapsed=0:01:19.48    \nframe=   64 fps=0.8 q=27.8 size=     256KiB time=00:00:01.03 bitrate=2029.8kbits/s speed=0.0129x elapsed=0:01:20.05    \nframe=   65 fps=0.8 q=32.7 size=     256KiB time=00:00:01.05 bitrate=1997.6kbits/s speed=0.013x elapsed=0:01:20.63    \nframe=   66 fps=0.8 q=33.7 size=     256KiB time=00:00:01.06 bitrate=1966.4kbits/s speed=0.0131x elapsed=0:01:21.18    \nframe=   66 fps=0.8 q=33.7 size=     256KiB time=00:00:01.06 bitrate=1966.4kbits/s speed=0.0131x elapsed=0:01:21.69    \nframe=   66 fps=0.8 q=33.7 size=     256KiB time=00:00:01.06 bitrate=1966.4kbits/s speed=0.013x elapsed=0:01:22.21    \nframe=   66 fps=0.8 q=33.7 size=     256KiB time=00:00:01.06 bitrate=1966.4kbits/s speed=0.0129x elapsed=0:01:22.77    \nframe=   66 fps=0.8 q=33.7 size=     256KiB time=00:00:01.06 bitrate=1966.4kbits/s speed=0.0128x elapsed=0:01:23.31    \nframe=   66 fps=0.8 q=33.7 size=     256KiB time=00:00:01.06 bitrate=1966.4kbits/s speed=0.0127x elapsed=0:01:23.84    \nframe=   66 fps=0.8 q=33.7 size=     256KiB time=00:00:01.06 bitrate=1966.4kbits/s speed=0.0126x elapsed=0:01:24.39    \nframe=   67 fps=0.8 q=33.6 size=     256KiB time=00:00:01.08 bitrate=1936.2kbits/s speed=0.0128x elapsed=0:01:24.95    \nframe=   67 fps=0.8 q=33.6 size=     256KiB time=00:00:01.08 bitrate=1936.2kbits/s speed=0.0127x elapsed=0:01:25.47    \nframe=   68 fps=0.8 q=33.8 size=     256KiB time=00:00:01.10 bitrate=1906.8kbits/s speed=0.0128x elapsed=0:01:25.98    \nframe=   68 fps=0.8 q=33.8 size=     256KiB time=00:00:01.10 bitrate=1906.8kbits/s speed=0.0127x elapsed=0:01:26.52    \nframe=   68 fps=0.8 q=33.8 size=     256KiB time=00:00:01.10 bitrate=1906.8kbits/s speed=0.0126x elapsed=0:01:27.04    \nframe=   69 fps=0.8 q=27.8 size=     256KiB time=00:00:01.11 bitrate=1878.4kbits/s speed=0.0128x elapsed=0:01:27.57    \nframe=   70 fps=0.8 q=31.8 size=     256KiB time=00:00:01.13 bitrate=1850.7kbits/s speed=0.0129x elapsed=0:01:28.08    \nframe=   70 fps=0.8 q=31.8 size=     256KiB time=00:00:01.13 bitrate=1850.7kbits/s speed=0.0128x elapsed=0:01:28.65    \nframe=   70 fps=0.8 q=31.8 size=     256KiB time=00:00:01.13 bitrate=1850.7kbits/s speed=0.0127x elapsed=0:01:29.18    \nframe=   70 fps=0.8 q=31.8 size=     256KiB time=00:00:01.13 bitrate=1850.7kbits/s speed=0.0126x elapsed=0:01:29.72    \nframe=   70 fps=0.8 q=31.8 size=     256KiB time=00:00:01.13 bitrate=1850.7kbits/s speed=0.0126x elapsed=0:01:30.24    \nframe=   70 fps=0.8 q=31.8 size=     256KiB time=00:00:01.13 bitrate=1850.7kbits/s speed=0.0125x elapsed=0:01:30.77    \nframe=   71 fps=0.8 q=33.8 size=     256KiB time=00:00:01.15 bitrate=1823.9kbits/s speed=0.0126x elapsed=0:01:31.31    \nframe=   71 fps=0.8 q=33.8 size=     256KiB time=00:00:01.15 bitrate=1823.9kbits/s speed=0.0125x elapsed=0:01:31.90    \nframe=   71 fps=0.8 q=33.8 size=     256KiB time=00:00:01.15 bitrate=1823.9kbits/s speed=0.0124x elapsed=0:01:32.47    \nframe=   72 fps=0.8 q=32.7 size=     256KiB time=00:00:01.16 bitrate=1797.9kbits/s speed=0.0125x elapsed=0:01:32.99    \nframe=   74 fps=0.8 q=29.7 size=     256KiB time=00:00:01.20 bitrate=1747.9kbits/s speed=0.0128x elapsed=0:01:33.55    \nframe=   75 fps=0.8 q=32.9 size=     256KiB time=00:00:01.21 bitrate=1724.0kbits/s speed=0.0129x elapsed=0:01:34.08    \nframe=   75 fps=0.8 q=32.9 size=     256KiB time=00:00:01.21 bitrate=1724.0kbits/s speed=0.0129x elapsed=0:01:34.66    \nframe=   75 fps=0.8 q=32.9 size=     256KiB time=00:00:01.21 bitrate=1724.0kbits/s speed=0.0128x elapsed=0:01:35.19    \nframe=   75 fps=0.8 q=32.9 size=     256KiB time=00:00:01.21 bitrate=1724.0kbits/s speed=0.0127x elapsed=0:01:35.73    \nframe=   76 fps=0.8 q=33.8 size=     256KiB time=00:00:01.23 bitrate=1700.7kbits/s speed=0.0128x elapsed=0:01:36.27    \nframe=   76 fps=0.8 q=33.8 size=     256KiB time=00:00:01.23 bitrate=1700.7kbits/s speed=0.0127x elapsed=0:01:36.80    \nframe=   77 fps=0.8 q=33.9 size=     256KiB time=00:00:01.25 bitrate=1678.0kbits/s speed=0.0128x elapsed=0:01:37.34    \nframe=   79 fps=0.8 q=31.3 size=     256KiB time=00:00:01.28 bitrate=1634.4kbits/s speed=0.0131x elapsed=0:01:37.89    \nframe=   80 fps=0.8 q=33.5 size=     256KiB time=00:00:01.30 bitrate=1613.5kbits/s speed=0.0132x elapsed=0:01:38.42    \nframe=   80 fps=0.8 q=33.5 size=     256KiB time=00:00:01.30 bitrate=1613.5kbits/s speed=0.0131x elapsed=0:01:38.94    \nframe=   80 fps=0.8 q=33.5 size=     256KiB time=00:00:01.30 bitrate=1613.5kbits/s speed=0.0131x elapsed=0:01:39.46    \nframe=   80 fps=0.8 q=33.5 size=     256KiB time=00:00:01.30 bitrate=1613.5kbits/s speed=0.013x elapsed=0:01:39.98    \nframe=   81 fps=0.8 q=33.6 size=     256KiB time=00:00:01.31 bitrate=1593.0kbits/s speed=0.0131x elapsed=0:01:40.49    \nframe=   82 fps=0.8 q=33.7 size=     256KiB time=00:00:01.33 bitrate=1573.1kbits/s speed=0.0132x elapsed=0:01:41.01    \nframe=   83 fps=0.8 q=27.6 size=     256KiB time=00:00:01.35 bitrate=1553.7kbits/s speed=0.0133x elapsed=0:01:41.54    \nframe=   84 fps=0.8 q=27.6 size=     256KiB time=00:00:01.36 bitrate=1534.8kbits/s speed=0.0134x elapsed=0:01:42.08    \nframe=   85 fps=0.8 q=35.0 size=     256KiB time=00:00:01.38 bitrate=1516.3kbits/s speed=0.0135x elapsed=0:01:42.63    \nframe=   85 fps=0.8 q=35.0 size=     256KiB time=00:00:01.38 bitrate=1516.3kbits/s speed=0.0134x elapsed=0:01:43.20    \nframe=   85 fps=0.8 q=35.0 size=     256KiB time=00:00:01.38 bitrate=1516.3kbits/s speed=0.0133x elapsed=0:01:43.76    \nframe=   85 fps=0.8 q=35.0 size=     256KiB time=00:00:01.38 bitrate=1516.3kbits/s speed=0.0133x elapsed=0:01:44.30    \nframe=   85 fps=0.8 q=35.0 size=     256KiB time=00:00:01.38 bitrate=1516.3kbits/s speed=0.0132x elapsed=0:01:44.87    \nframe=   86 fps=0.8 q=34.0 size=     256KiB time=00:00:01.40 bitrate=1498.2kbits/s speed=0.0133x elapsed=0:01:45.47    \nframe=   86 fps=0.8 q=34.0 size=     256KiB time=00:00:01.40 bitrate=1498.2kbits/s speed=0.0132x elapsed=0:01:45.99    \nframe=   89 fps=0.8 q=28.1 size=     256KiB time=00:00:01.45 bitrate=1446.6kbits/s speed=0.0136x elapsed=0:01:46.53    \nframe=   89 fps=0.8 q=28.1 size=     256KiB time=00:00:01.45 bitrate=1446.6kbits/s speed=0.0135x elapsed=0:01:47.05    \nframe=   89 fps=0.8 q=28.1 size=     256KiB time=00:00:01.45 bitrate=1446.6kbits/s speed=0.0135x elapsed=0:01:47.60    \nframe=   90 fps=0.8 q=35.0 size=     256KiB time=00:00:01.46 bitrate=1430.1kbits/s speed=0.0136x elapsed=0:01:48.11    \nframe=   90 fps=0.8 q=35.0 size=     256KiB time=00:00:01.46 bitrate=1430.1kbits/s speed=0.0135x elapsed=0:01:48.64    \nframe=   91 fps=0.8 q=34.9 size=     256KiB time=00:00:01.48 bitrate=1414.0kbits/s speed=0.0136x elapsed=0:01:49.16    \nframe=   91 fps=0.8 q=34.9 size=     256KiB time=00:00:01.48 bitrate=1414.0kbits/s speed=0.0135x elapsed=0:01:49.70    \nframe=   92 fps=0.8 q=35.0 size=     256KiB time=00:00:01.50 bitrate=1398.3kbits/s speed=0.0136x elapsed=0:01:50.22    \nframe=   92 fps=0.8 q=35.0 size=     256KiB time=00:00:01.50 bitrate=1398.3kbits/s speed=0.0135x elapsed=0:01:50.74    \nframe=   92 fps=0.8 q=35.0 size=     256KiB time=00:00:01.50 bitrate=1398.3kbits/s speed=0.0135x elapsed=0:01:51.28    \nframe=   92 fps=0.8 q=35.0 size=     256KiB time=00:00:01.50 bitrate=1398.3kbits/s speed=0.0134x elapsed=0:01:51.78    \nframe=   93 fps=0.8 q=27.3 size=     256KiB time=00:00:01.51 bitrate=1383.0kbits/s speed=0.0135x elapsed=0:01:52.31    \nframe=   93 fps=0.8 q=27.3 size=     256KiB time=00:00:01.51 bitrate=1383.0kbits/s speed=0.0134x elapsed=0:01:52.88    \nframe=   93 fps=0.8 q=27.3 size=     256KiB time=00:00:01.51 bitrate=1383.0kbits/s speed=0.0134x elapsed=0:01:53.41    \nframe=   93 fps=0.8 q=27.3 size=     256KiB time=00:00:01.51 bitrate=1383.0kbits/s speed=0.0133x elapsed=0:01:53.95    \nframe=   94 fps=0.8 q=30.3 size=     512KiB time=00:00:01.53 bitrate=2735.6kbits/s speed=0.0134x elapsed=0:01:54.48    \nframe=   96 fps=0.8 q=27.0 size=     512KiB time=00:00:01.56 bitrate=2677.4kbits/s speed=0.0136x elapsed=0:01:55.00    \nframe=   96 fps=0.8 q=27.0 size=     512KiB time=00:00:01.56 bitrate=2677.4kbits/s speed=0.0136x elapsed=0:01:55.53    \nframe=   97 fps=0.8 q=32.7 size=     512KiB time=00:00:01.58 bitrate=2649.3kbits/s speed=0.0136x elapsed=0:01:56.08    \nframe=   98 fps=0.8 q=34.0 size=     512KiB time=00:00:01.60 bitrate=2621.7kbits/s speed=0.0137x elapsed=0:01:56.69    \nframe=   98 fps=0.8 q=34.0 size=     512KiB time=00:00:01.60 bitrate=2621.7kbits/s speed=0.0136x elapsed=0:01:57.22    \nframe=   98 fps=0.8 q=34.0 size=     512KiB time=00:00:01.60 bitrate=2621.7kbits/s speed=0.0136x elapsed=0:01:57.74    \nframe=   98 fps=0.8 q=34.0 size=     512KiB time=00:00:01.60 bitrate=2621.7kbits/s speed=0.0135x elapsed=0:01:58.29    \nframe=   99 fps=0.8 q=32.5 size=     512KiB time=00:00:01.61 bitrate=2594.6kbits/s speed=0.0136x elapsed=0:01:58.83    \nframe=   99 fps=0.8 q=32.5 size=     512KiB time=00:00:01.61 bitrate=2594.6kbits/s speed=0.0135x elapsed=0:01:59.36    \nframe=  100 fps=0.8 q=32.6 size=     512KiB time=00:00:01.63 bitrate=2568.2kbits/s speed=0.0136x elapsed=0:01:59.93    \nframe=  102 fps=0.8 q=28.4 size=     512KiB time=00:00:01.66 bitrate=2516.8kbits/s speed=0.0138x elapsed=0:02:00.49    \nframe=  102 fps=0.8 q=28.4 size=     512KiB time=00:00:01.66 bitrate=2516.8kbits/s speed=0.0138x elapsed=0:02:01.04    \nframe=  103 fps=0.8 q=33.0 size=     512KiB time=00:00:01.68 bitrate=2491.9kbits/s speed=0.0138x elapsed=0:02:01.59    \nframe=  103 fps=0.8 q=33.0 size=     512KiB time=00:00:01.68 bitrate=2491.9kbits/s speed=0.0138x elapsed=0:02:02.13    \nframe=  103 fps=0.8 q=33.0 size=     512KiB time=00:00:01.68 bitrate=2491.9kbits/s speed=0.0137x elapsed=0:02:02.70    \nframe=  103 fps=0.8 q=33.0 size=     512KiB time=00:00:01.68 bitrate=2491.9kbits/s speed=0.0137x elapsed=0:02:03.22    \nframe=  103 fps=0.8 q=33.0 size=     512KiB time=00:00:01.68 bitrate=2491.9kbits/s speed=0.0136x elapsed=0:02:03.74    \nframe=  103 fps=0.8 q=33.0 size=     512KiB time=00:00:01.68 bitrate=2491.9kbits/s speed=0.0135x elapsed=0:02:04.27    \nframe=  103 fps=0.8 q=33.0 size=     512KiB time=00:00:01.68 bitrate=2491.9kbits/s speed=0.0135x elapsed=0:02:04.78    \nframe=  103 fps=0.8 q=33.0 size=     512KiB time=00:00:01.68 bitrate=2491.9kbits/s speed=0.0134x elapsed=0:02:05.34    \nframe=  103 fps=0.8 q=33.0 size=     512KiB time=00:00:01.68 bitrate=2491.9kbits/s speed=0.0134x elapsed=0:02:05.86    \nframe=  103 fps=0.8 q=33.0 size=     512KiB time=00:00:01.68 bitrate=2491.9kbits/s speed=0.0133x elapsed=0:02:06.40    \nframe=  104 fps=0.8 q=33.9 size=     512KiB time=00:00:01.70 bitrate=2467.4kbits/s speed=0.0134x elapsed=0:02:06.93    \nframe=  104 fps=0.8 q=33.9 size=     512KiB time=00:00:01.70 bitrate=2467.4kbits/s speed=0.0133x elapsed=0:02:07.51    \nframe=  105 fps=0.8 q=33.9 size=     512KiB time=00:00:01.70 bitrate=2467.4kbits/s speed=0.0133x elapsed=0:02:08.07    \nframe=  105 fps=0.8 q=33.9 size=     512KiB time=00:00:01.71 bitrate=2443.5kbits/s speed=0.0133x elapsed=0:02:08.61    \nframe=  105 fps=0.8 q=33.9 size=     512KiB time=00:00:01.71 bitrate=2443.5kbits/s speed=0.0133x elapsed=0:02:09.14    \nframe=  105 fps=0.8 q=33.9 size=     512KiB time=00:00:01.71 bitrate=2443.5kbits/s speed=0.0132x elapsed=0:02:09.70    \nframe=  106 fps=0.8 q=27.3 size=     512KiB time=00:00:01.73 bitrate=2420.0kbits/s speed=0.0133x elapsed=0:02:10.21    \nframe=  107 fps=0.8 q=27.6 size=     512KiB time=00:00:01.75 bitrate=2396.9kbits/s speed=0.0134x elapsed=0:02:10.72    \nframe=  108 fps=0.8 q=34.0 size=     512KiB time=00:00:01.76 bitrate=2374.3kbits/s speed=0.0135x elapsed=0:02:11.29    \nframe=  108 fps=0.8 q=34.0 size=     512KiB time=00:00:01.76 bitrate=2374.3kbits/s speed=0.0134x elapsed=0:02:11.85    \nframe=  108 fps=0.8 q=34.0 size=     512KiB time=00:00:01.76 bitrate=2374.3kbits/s speed=0.0133x elapsed=0:02:12.38    \nframe=  108 fps=0.8 q=34.0 size=     512KiB time=00:00:01.76 bitrate=2374.3kbits/s speed=0.0133x elapsed=0:02:13.02    \nframe=  108 fps=0.8 q=34.0 size=     512KiB time=00:00:01.76 bitrate=2374.3kbits/s speed=0.0132x elapsed=0:02:13.59    \nframe=  109 fps=0.8 q=34.0 size=     512KiB time=00:00:01.78 bitrate=2352.1kbits/s speed=0.0133x elapsed=0:02:14.12    \nframe=  110 fps=0.8 q=34.9 size=     512KiB time=00:00:01.80 bitrate=2330.4kbits/s speed=0.0134x elapsed=0:02:14.64    \nframe=  110 fps=0.8 q=34.9 size=     512KiB time=00:00:01.80 bitrate=2330.4kbits/s speed=0.0133x elapsed=0:02:15.22    \nframe=  112 fps=0.8 q=33.9 size=     512KiB time=00:00:01.83 bitrate=2288.0kbits/s speed=0.0135x elapsed=0:02:15.76    \nframe=  113 fps=0.8 q=35.0 size=     512KiB time=00:00:01.85 bitrate=2267.4kbits/s speed=0.0136x elapsed=0:02:16.28    \nframe=  113 fps=0.8 q=35.0 size=     512KiB time=00:00:01.85 bitrate=2267.4kbits/s speed=0.0135x elapsed=0:02:16.81    \nframe=  113 fps=0.8 q=35.0 size=     512KiB time=00:00:01.85 bitrate=2267.4kbits/s speed=0.0135x elapsed=0:02:17.34    \nframe=  113 fps=0.8 q=35.0 size=     512KiB time=00:00:01.85 bitrate=2267.4kbits/s speed=0.0134x elapsed=0:02:17.88    \nframe=  115 fps=0.8 q=35.0 size=     512KiB time=00:00:01.88 bitrate=2227.3kbits/s speed=0.0136x elapsed=0:02:18.40    \nframe=  115 fps=0.8 q=35.0 size=     512KiB time=00:00:01.88 bitrate=2227.3kbits/s speed=0.0136x elapsed=0:02:18.91    \nframe=  116 fps=0.8 q=27.5 size=     512KiB time=00:00:01.90 bitrate=2207.7kbits/s speed=0.0136x elapsed=0:02:19.46    \nframe=  117 fps=0.8 q=34.6 size=     512KiB time=00:00:01.91 bitrate=2188.5kbits/s speed=0.0137x elapsed=0:02:20.00    \nframe=  117 fps=0.8 q=34.6 size=     512KiB time=00:00:01.91 bitrate=2188.5kbits/s speed=0.0136x elapsed=0:02:20.54    \nframe=  118 fps=0.8 q=36.0 size=     512KiB time=00:00:01.93 bitrate=2169.7kbits/s speed=0.0137x elapsed=0:02:21.14    \nframe=  118 fps=0.8 q=36.0 size=     512KiB time=00:00:01.93 bitrate=2169.7kbits/s speed=0.0136x elapsed=0:02:21.69    \nframe=  120 fps=0.8 q=36.0 size=     512KiB time=00:00:01.96 bitrate=2132.9kbits/s speed=0.0138x elapsed=0:02:22.21    \nframe=  120 fps=0.8 q=36.0 size=     512KiB time=00:00:01.96 bitrate=2132.9kbits/s speed=0.0138x elapsed=0:02:22.72    \nframe=  121 fps=0.8 q=27.6 size=     512KiB time=00:00:01.98 bitrate=2115.0kbits/s speed=0.0138x elapsed=0:02:23.26    \nframe=  122 fps=0.8 q=33.9 size=     512KiB time=00:00:02.00 bitrate=2097.3kbits/s speed=0.0139x elapsed=0:02:23.79    \nframe=  123 fps=0.9 q=36.0 size=     512KiB time=00:00:02.01 bitrate=2080.0kbits/s speed=0.014x elapsed=0:02:24.32    \nframe=  123 fps=0.8 q=36.0 size=     512KiB time=00:00:02.01 bitrate=2080.0kbits/s speed=0.0139x elapsed=0:02:24.85    \nframe=  123 fps=0.8 q=36.0 size=     512KiB time=00:00:02.01 bitrate=2080.0kbits/s speed=0.0139x elapsed=0:02:25.39    \nframe=  123 fps=0.8 q=36.0 size=     512KiB time=00:00:02.01 bitrate=2080.0kbits/s speed=0.0138x elapsed=0:02:25.93    \nframe=  124 fps=0.8 q=35.0 size=     512KiB time=00:00:02.03 bitrate=2062.9kbits/s speed=0.0139x elapsed=0:02:26.44    \nframe=  126 fps=0.9 q=27.3 size=     512KiB time=00:00:02.06 bitrate=2029.7kbits/s speed=0.0141x elapsed=0:02:26.97    \nframe=  126 fps=0.9 q=27.3 size=     512KiB time=00:00:02.06 bitrate=2029.7kbits/s speed=0.014x elapsed=0:02:27.55    \nframe=  126 fps=0.9 q=27.3 size=     512KiB time=00:00:02.06 bitrate=2029.7kbits/s speed=0.014x elapsed=0:02:28.06    \nframe=  128 fps=0.9 q=34.9 size=     512KiB time=00:00:02.10 bitrate=1997.5kbits/s speed=0.0141x elapsed=0:02:28.57    \nframe=  128 fps=0.9 q=34.9 size=     512KiB time=00:00:02.10 bitrate=1997.5kbits/s speed=0.0141x elapsed=0:02:29.11    \nframe=  128 fps=0.9 q=34.9 size=     512KiB time=00:00:02.10 bitrate=1997.5kbits/s speed=0.014x elapsed=0:02:29.62    \nframe=  130 fps=0.9 q=32.7 size=     512KiB time=00:00:02.13 bitrate=1966.2kbits/s speed=0.0142x elapsed=0:02:30.17    \nframe=  130 fps=0.9 q=32.7 size=     512KiB time=00:00:02.13 bitrate=1966.2kbits/s speed=0.0142x elapsed=0:02:30.69    \nframe=  132 fps=0.9 q=31.9 size=     512KiB time=00:00:02.16 bitrate=1936.0kbits/s speed=0.0143x elapsed=0:02:31.23    \nframe=  133 fps=0.9 q=32.6 size=     512KiB time=00:00:02.18 bitrate=1921.2kbits/s speed=0.0144x elapsed=0:02:31.77    \nframe=  133 fps=0.9 q=32.6 size=     512KiB time=00:00:02.18 bitrate=1921.2kbits/s speed=0.0143x elapsed=0:02:32.29    \nframe=  133 fps=0.9 q=32.6 size=     512KiB time=00:00:02.18 bitrate=1921.2kbits/s speed=0.0143x elapsed=0:02:32.83    \nframe=  134 fps=0.9 q=31.9 size=     512KiB time=00:00:02.20 bitrate=1906.7kbits/s speed=0.0143x elapsed=0:02:33.34    \nframe=  135 fps=0.9 q=31.8 size=     512KiB time=00:00:02.20 bitrate=1906.7kbits/s speed=0.0143x elapsed=0:02:33.87    \nframe=  135 fps=0.9 q=31.8 size=     512KiB time=00:00:02.21 bitrate=1892.3kbits/s speed=0.0144x elapsed=0:02:34.44    \nframe=  135 fps=0.9 q=31.8 size=     512KiB time=00:00:02.21 bitrate=1892.3kbits/s speed=0.0143x elapsed=0:02:35.05    \nframe=  135 fps=0.9 q=31.8 size=     512KiB time=00:00:02.21 bitrate=1892.3kbits/s speed=0.0142x elapsed=0:02:35.59    \nframe=  135 fps=0.9 q=31.8 size=     512KiB time=00:00:02.21 bitrate=1892.3kbits/s speed=0.0142x elapsed=0:02:36.24    \nframe=  135 fps=0.9 q=31.8 size=     512KiB time=00:00:02.21 bitrate=1892.3kbits/s speed=0.0141x elapsed=0:02:36.81    \nframe=  135 fps=0.9 q=31.8 size=     512KiB time=00:00:02.21 bitrate=1892.3kbits/s speed=0.0141x elapsed=0:02:37.40    \nframe=  137 fps=0.9 q=31.0 size=     768KiB time=00:00:02.25 bitrate=2796.4kbits/s speed=0.0142x elapsed=0:02:37.91    \nframe=  137 fps=0.9 q=31.0 size=     768KiB time=00:00:02.25 bitrate=2796.4kbits/s speed=0.0142x elapsed=0:02:38.54    \nframe=  137 fps=0.9 q=31.0 size=     768KiB time=00:00:02.25 bitrate=2796.4kbits/s speed=0.0141x elapsed=0:02:39.07    \nframe=  139 fps=0.9 q=34.0 size=     768KiB time=00:00:02.28 bitrate=2755.5kbits/s speed=0.0143x elapsed=0:02:39.60    \nframe=  139 fps=0.9 q=34.0 size=     768KiB time=00:00:02.28 bitrate=2755.5kbits/s speed=0.0143x elapsed=0:02:40.14    \nframe=  139 fps=0.9 q=34.0 size=     768KiB time=00:00:02.28 bitrate=2755.5kbits/s speed=0.0142x elapsed=0:02:40.68    \nframe=  140 fps=0.9 q=27.6 size=     768KiB time=00:00:02.30 bitrate=2735.6kbits/s speed=0.0143x elapsed=0:02:41.21    \nframe=  142 fps=0.9 q=33.8 size=     768KiB time=00:00:02.33 bitrate=2696.5kbits/s speed=0.0144x elapsed=0:02:41.76    \nframe=  142 fps=0.9 q=33.8 size=     768KiB time=00:00:02.33 bitrate=2696.5kbits/s speed=0.0144x elapsed=0:02:42.29    \nframe=  143 fps=0.9 q=33.9 size=     768KiB time=00:00:02.35 bitrate=2677.4kbits/s speed=0.0144x elapsed=0:02:42.81    \nframe=  144 fps=0.9 q=33.8 size=     768KiB time=00:00:02.36 bitrate=2658.5kbits/s speed=0.0145x elapsed=0:02:43.33    \nframe=  146 fps=0.9 q=33.9 size=     768KiB time=00:00:02.40 bitrate=2621.6kbits/s speed=0.0146x elapsed=0:02:43.85    \nframe=  147 fps=0.9 q=35.0 size=     768KiB time=00:00:02.41 bitrate=2603.5kbits/s speed=0.0147x elapsed=0:02:44.37    \nframe=  147 fps=0.9 q=35.0 size=     768KiB time=00:00:02.41 bitrate=2603.5kbits/s speed=0.0147x elapsed=0:02:44.89    \nframe=  148 fps=0.9 q=34.0 size=     768KiB time=00:00:02.43 bitrate=2585.7kbits/s speed=0.0147x elapsed=0:02:45.39    \nframe=  148 fps=0.9 q=34.0 size=     768KiB time=00:00:02.43 bitrate=2585.7kbits/s speed=0.0147x elapsed=0:02:45.92    \nframe=  150 fps=0.9 q=27.8 size=     768KiB time=00:00:02.46 bitrate=2550.7kbits/s speed=0.0148x elapsed=0:02:46.44    \nframe=  151 fps=0.9 q=30.6 size=     768KiB time=00:00:02.48 bitrate=2533.6kbits/s speed=0.0149x elapsed=0:02:46.95    \nframe=  152 fps=0.9 q=34.9 size=     768KiB time=00:00:02.50 bitrate=2516.7kbits/s speed=0.0149x elapsed=0:02:47.47    \nframe=  153 fps=0.9 q=34.9 size=     768KiB time=00:00:02.51 bitrate=2500.1kbits/s speed=0.015x elapsed=0:02:47.98    \nframe=  153 fps=0.9 q=34.9 size=     768KiB time=00:00:02.51 bitrate=2500.1kbits/s speed=0.0149x elapsed=0:02:48.49    \nframe=  154 fps=0.9 q=35.0 size=     768KiB time=00:00:02.53 bitrate=2483.6kbits/s speed=0.015x elapsed=0:02:49.01    \nframe=  156 fps=0.9 q=33.6 size=     768KiB time=00:00:02.56 bitrate=2451.4kbits/s speed=0.0151x elapsed=0:02:49.52    \nframe=  157 fps=0.9 q=34.8 size=     768KiB time=00:00:02.58 bitrate=2435.5kbits/s speed=0.0152x elapsed=0:02:50.03    \nframe=  157 fps=0.9 q=34.8 size=     768KiB time=00:00:02.58 bitrate=2435.5kbits/s speed=0.0151x elapsed=0:02:50.55    \nframe=  159 fps=0.9 q=34.7 size=     768KiB time=00:00:02.61 bitrate=2404.5kbits/s speed=0.0153x elapsed=0:02:51.15    \nframe=  159 fps=0.9 q=34.7 size=     768KiB time=00:00:02.61 bitrate=2404.5kbits/s speed=0.0152x elapsed=0:02:51.68    \nframe=  159 fps=0.9 q=34.7 size=     768KiB time=00:00:02.61 bitrate=2404.5kbits/s speed=0.0152x elapsed=0:02:52.22    \nframe=  159 fps=0.9 q=34.7 size=     768KiB time=00:00:02.61 bitrate=2404.5kbits/s speed=0.0151x elapsed=0:02:52.77    \nframe=  161 fps=0.9 q=33.0 size=     768KiB time=00:00:02.65 bitrate=2374.3kbits/s speed=0.0153x elapsed=0:02:53.34    \nframe=  161 fps=0.9 q=33.0 size=     768KiB time=00:00:02.65 bitrate=2374.3kbits/s speed=0.0152x elapsed=0:02:53.89    \nframe=  162 fps=0.9 q=34.9 size=     768KiB time=00:00:02.66 bitrate=2359.4kbits/s speed=0.0153x elapsed=0:02:54.47    \nframe=  162 fps=0.9 q=34.9 size=     768KiB time=00:00:02.66 bitrate=2359.4kbits/s speed=0.0152x elapsed=0:02:55.04    \nframe=  163 fps=0.9 q=34.9 size=     768KiB time=00:00:02.68 bitrate=2344.8kbits/s speed=0.0153x elapsed=0:02:55.64    \nframe=  163 fps=0.9 q=34.9 size=     768KiB time=00:00:02.68 bitrate=2344.8kbits/s speed=0.0152x elapsed=0:02:56.31    \nframe=  164 fps=0.9 q=29.0 size=     768KiB time=00:00:02.70 bitrate=2330.3kbits/s speed=0.0153x elapsed=0:02:56.92    \nframe=  165 fps=0.9 q=33.1 size=     768KiB time=00:00:02.71 bitrate=2316.0kbits/s speed=0.0153x elapsed=0:02:57.50    \nframe=  166 fps=0.9 q=34.6 size=     768KiB time=00:00:02.73 bitrate=2301.9kbits/s speed=0.0153x elapsed=0:02:58.07    \nframe=  166 fps=0.9 q=34.6 size=     768KiB time=00:00:02.73 bitrate=2301.9kbits/s speed=0.0153x elapsed=0:02:58.63    \nframe=  166 fps=0.9 q=34.6 size=     768KiB time=00:00:02.73 bitrate=2301.9kbits/s speed=0.0153x elapsed=0:02:59.19    \nframe=  166 fps=0.9 q=34.6 size=     768KiB time=00:00:02.73 bitrate=2301.9kbits/s speed=0.0152x elapsed=0:02:59.82    \nframe=  166 fps=0.9 q=34.6 size=     768KiB time=00:00:02.73 bitrate=2301.9kbits/s speed=0.0152x elapsed=0:03:00.39    \nframe=  166 fps=0.9 q=34.6 size=     768KiB time=00:00:02.73 bitrate=2301.9kbits/s speed=0.0151x elapsed=0:03:01.00    \nframe=  167 fps=0.9 q=34.8 size=     768KiB time=00:00:02.75 bitrate=2287.9kbits/s speed=0.0151x elapsed=0:03:01.55    \nframe=  167 fps=0.9 q=34.8 size=     768KiB time=00:00:02.75 bitrate=2287.9kbits/s speed=0.0151x elapsed=0:03:02.21    \nframe=  167 fps=0.9 q=34.8 size=     768KiB time=00:00:02.75 bitrate=2287.9kbits/s speed=0.015x elapsed=0:03:02.76    \nframe=  167 fps=0.9 q=34.8 size=     768KiB time=00:00:02.75 bitrate=2287.9kbits/s speed=0.015x elapsed=0:03:03.34    \nframe=  167 fps=0.9 q=34.8 size=     768KiB time=00:00:02.75 bitrate=2287.9kbits/s speed=0.015x elapsed=0:03:03.91    \nframe=  167 fps=0.9 q=34.8 size=     768KiB time=00:00:02.75 bitrate=2287.9kbits/s speed=0.0149x elapsed=0:03:04.56    \nframe=  167 fps=0.9 q=34.8 size=     768KiB time=00:00:02.75 bitrate=2287.9kbits/s speed=0.0148x elapsed=0:03:05.25    \nframe=  167 fps=0.9 q=34.8 size=     768KiB time=00:00:02.75 bitrate=2287.9kbits/s speed=0.0148x elapsed=0:03:05.81    \nframe=  168 fps=0.9 q=29.1 size=     768KiB time=00:00:02.76 bitrate=2274.1kbits/s speed=0.0148x elapsed=0:03:06.35    \nframe=  168 fps=0.9 q=29.1 size=     768KiB time=00:00:02.76 bitrate=2274.1kbits/s speed=0.0148x elapsed=0:03:06.89    \nframe=  168 fps=0.9 q=29.1 size=     768KiB time=00:00:02.76 bitrate=2274.1kbits/s speed=0.0148x elapsed=0:03:07.48    \nframe=  169 fps=0.9 q=35.0 size=     768KiB time=00:00:02.78 bitrate=2260.5kbits/s speed=0.0148x elapsed=0:03:08.06    \nframe=  169 fps=0.9 q=35.0 size=     768KiB time=00:00:02.78 bitrate=2260.5kbits/s speed=0.0148x elapsed=0:03:08.66    \nframe=  169 fps=0.9 q=35.0 size=     768KiB time=00:00:02.78 bitrate=2260.5kbits/s speed=0.0147x elapsed=0:03:09.22    \nframe=  169 fps=0.9 q=35.0 size=     768KiB time=00:00:02.78 bitrate=2260.5kbits/s speed=0.0147x elapsed=0:03:09.77    \nframe=  169 fps=0.9 q=35.0 size=     768KiB time=00:00:02.78 bitrate=2260.5kbits/s speed=0.0146x elapsed=0:03:10.30    \nframe=  169 fps=0.9 q=35.0 size=     768KiB time=00:00:02.78 bitrate=2260.5kbits/s speed=0.0146x elapsed=0:03:10.89    \nframe=  169 fps=0.9 q=35.0 size=     768KiB time=00:00:02.78 bitrate=2260.5kbits/s speed=0.0145x elapsed=0:03:11.48    \nframe=  169 fps=0.9 q=35.0 size=     768KiB time=00:00:02.78 bitrate=2260.5kbits/s speed=0.0145x elapsed=0:03:12.09    \nframe=  169 fps=0.9 q=35.0 size=     768KiB time=00:00:02.78 bitrate=2260.5kbits/s speed=0.0144x elapsed=0:03:12.63    \nframe=  170 fps=0.9 q=29.2 size=     768KiB time=00:00:02.80 bitrate=2247.1kbits/s speed=0.0145x elapsed=0:03:13.15    \nframe=  170 fps=0.9 q=29.2 size=     768KiB time=00:00:02.80 bitrate=2247.1kbits/s speed=0.0144x elapsed=0:03:13.84    \nframe=  170 fps=0.9 q=29.2 size=     768KiB time=00:00:02.80 bitrate=2247.1kbits/s speed=0.0144x elapsed=0:03:14.44    \nframe=  170 fps=0.9 q=29.2 size=     768KiB time=00:00:02.80 bitrate=2247.1kbits/s speed=0.0144x elapsed=0:03:15.02    \nframe=  170 fps=0.9 q=29.2 size=     768KiB time=00:00:02.80 bitrate=2247.1kbits/s speed=0.0143x elapsed=0:03:15.59    \nframe=  170 fps=0.9 q=29.2 size=     768KiB time=00:00:02.80 bitrate=2247.1kbits/s speed=0.0143x elapsed=0:03:16.21    \nframe=  170 fps=0.9 q=29.2 size=     768KiB time=00:00:02.80 bitrate=2247.1kbits/s speed=0.0142x elapsed=0:03:16.81    \nframe=  171 fps=0.9 q=31.9 size=     768KiB time=00:00:02.81 bitrate=2233.8kbits/s speed=0.0143x elapsed=0:03:17.37    \nframe=  171 fps=0.9 q=31.9 size=     768KiB time=00:00:02.81 bitrate=2233.8kbits/s speed=0.0142x elapsed=0:03:17.92    \nframe=  171 fps=0.9 q=31.9 size=     768KiB time=00:00:02.81 bitrate=2233.8kbits/s speed=0.0142x elapsed=0:03:18.51    \nframe=  171 fps=0.9 q=31.9 size=     768KiB time=00:00:02.81 bitrate=2233.8kbits/s speed=0.0141x elapsed=0:03:19.11    \nframe=  171 fps=0.9 q=31.9 size=     768KiB time=00:00:02.81 bitrate=2233.8kbits/s speed=0.0141x elapsed=0:03:19.74    \nframe=  173 fps=0.9 q=34.9 size=     768KiB time=00:00:02.83 bitrate=2220.6kbits/s speed=0.0141x elapsed=0:03:20.27    \nframe=  173 fps=0.9 q=34.9 size=     768KiB time=00:00:02.85 bitrate=2207.7kbits/s speed=0.0142x elapsed=0:03:20.83    \nframe=  173 fps=0.9 q=34.9 size=     768KiB time=00:00:02.85 bitrate=2207.7kbits/s speed=0.0142x elapsed=0:03:21.35    \nframe=  173 fps=0.9 q=34.9 size=     768KiB time=00:00:02.85 bitrate=2207.7kbits/s speed=0.0141x elapsed=0:03:21.91    \nframe=  173 fps=0.9 q=34.9 size=     768KiB time=00:00:02.85 bitrate=2207.7kbits/s speed=0.0141x elapsed=0:03:22.52    \nframe=  173 fps=0.9 q=34.9 size=     768KiB time=00:00:02.85 bitrate=2207.7kbits/s speed=0.014x elapsed=0:03:23.07    \nframe=  173 fps=0.8 q=34.9 size=     768KiB time=00:00:02.85 bitrate=2207.7kbits/s speed=0.014x elapsed=0:03:23.67    \nframe=  173 fps=0.8 q=34.9 size=     768KiB time=00:00:02.85 bitrate=2207.7kbits/s speed=0.014x elapsed=0:03:24.24    \nframe=  173 fps=0.8 q=34.9 size=     768KiB time=00:00:02.85 bitrate=2207.7kbits/s speed=0.0139x elapsed=0:03:24.79    \nframe=  173 fps=0.8 q=34.9 size=     768KiB time=00:00:02.85 bitrate=2207.7kbits/s speed=0.0139x elapsed=0:03:25.32    \nframe=  173 fps=0.8 q=34.9 size=     768KiB time=00:00:02.85 bitrate=2207.7kbits/s speed=0.0138x elapsed=0:03:25.94    \nframe=  173 fps=0.8 q=34.9 size=     768KiB time=00:00:02.85 bitrate=2207.7kbits/s speed=0.0138x elapsed=0:03:26.47    \nframe=  173 fps=0.8 q=34.9 size=     768KiB time=00:00:02.85 bitrate=2207.7kbits/s speed=0.0138x elapsed=0:03:27.01    \nframe=  174 fps=0.8 q=29.3 size=     768KiB time=00:00:02.85 bitrate=2207.7kbits/s speed=0.0137x elapsed=0:03:27.54    \nframe=  175 fps=0.8 q=32.7 size=    1024KiB time=00:00:02.88 bitrate=2909.5kbits/s speed=0.0138x elapsed=0:03:28.19    \nframe=  175 fps=0.8 q=32.7 size=    1024KiB time=00:00:02.88 bitrate=2909.5kbits/s speed=0.0138x elapsed=0:03:28.73    \nframe=  175 fps=0.8 q=32.7 size=    1024KiB time=00:00:02.88 bitrate=2909.5kbits/s speed=0.0138x elapsed=0:03:29.30    \nframe=  175 fps=0.8 q=32.7 size=    1024KiB time=00:00:02.88 bitrate=2909.5kbits/s speed=0.0137x elapsed=0:03:29.92    \nframe=  175 fps=0.8 q=32.7 size=    1024KiB time=00:00:02.88 bitrate=2909.5kbits/s speed=0.0137x elapsed=0:03:30.44    \nframe=  175 fps=0.8 q=32.7 size=    1024KiB time=00:00:02.88 bitrate=2909.5kbits/s speed=0.0137x elapsed=0:03:31.01    \nframe=  175 fps=0.8 q=32.7 size=    1024KiB time=00:00:02.88 bitrate=2909.5kbits/s speed=0.0136x elapsed=0:03:31.57    \nframe=  176 fps=0.8 q=34.8 size=    1024KiB time=00:00:02.90 bitrate=2892.7kbits/s speed=0.0137x elapsed=0:03:32.19    \nframe=  177 fps=0.8 q=35.0 size=    1024KiB time=00:00:02.91 bitrate=2876.2kbits/s speed=0.0137x elapsed=0:03:32.74    \nframe=  177 fps=0.8 q=35.0 size=    1024KiB time=00:00:02.91 bitrate=2876.2kbits/s speed=0.0137x elapsed=0:03:33.31    \nframe=  177 fps=0.8 q=35.0 size=    1024KiB time=00:00:02.91 bitrate=2876.2kbits/s speed=0.0136x elapsed=0:03:33.86    \nframe=  177 fps=0.8 q=35.0 size=    1024KiB time=00:00:02.91 bitrate=2876.2kbits/s speed=0.0136x elapsed=0:03:34.41    \nframe=  177 fps=0.8 q=35.0 size=    1024KiB time=00:00:02.91 bitrate=2876.2kbits/s speed=0.0136x elapsed=0:03:34.94    \nframe=  177 fps=0.8 q=35.0 size=    1024KiB time=00:00:02.91 bitrate=2876.2kbits/s speed=0.0135x elapsed=0:03:35.51    \nframe=  177 fps=0.8 q=35.0 size=    1024KiB time=00:00:02.91 bitrate=2876.2kbits/s speed=0.0135x elapsed=0:03:36.11    \nframe=  178 fps=0.8 q=29.5 size=    1024KiB time=00:00:02.93 bitrate=2859.9kbits/s speed=0.0135x elapsed=0:03:36.64    \nframe=  178 fps=0.8 q=29.5 size=    1024KiB time=00:00:02.93 bitrate=2859.9kbits/s speed=0.0135x elapsed=0:03:37.16    \nframe=  178 fps=0.8 q=29.5 size=    1024KiB time=00:00:02.93 bitrate=2859.9kbits/s speed=0.0135x elapsed=0:03:37.76    \nframe=  178 fps=0.8 q=29.5 size=    1024KiB time=00:00:02.93 bitrate=2859.9kbits/s speed=0.0134x elapsed=0:03:38.39    \nframe=  178 fps=0.8 q=29.5 size=    1024KiB time=00:00:02.93 bitrate=2859.9kbits/s speed=0.0134x elapsed=0:03:38.98    \nframe=  179 fps=0.8 q=33.8 size=    1024KiB time=00:00:02.95 bitrate=2843.7kbits/s speed=0.0134x elapsed=0:03:39.57    \nframe=  180 fps=0.8 q=35.2 size=    1024KiB time=00:00:02.96 bitrate=2827.7kbits/s speed=0.0135x elapsed=0:03:40.11    \nframe=  180 fps=0.8 q=35.2 size=    1024KiB time=00:00:02.96 bitrate=2827.7kbits/s speed=0.0134x elapsed=0:03:40.69    \nframe=  181 fps=0.8 q=30.1 size=    1024KiB time=00:00:02.98 bitrate=2811.9kbits/s speed=0.0135x elapsed=0:03:41.28    \nframe=  181 fps=0.8 q=30.1 size=    1024KiB time=00:00:02.98 bitrate=2811.9kbits/s speed=0.0134x elapsed=0:03:41.82    \nframe=  181 fps=0.8 q=30.1 size=    1024KiB time=00:00:02.98 bitrate=2811.9kbits/s speed=0.0134x elapsed=0:03:42.33    \nframe=  181 fps=0.8 q=30.1 size=    1024KiB time=00:00:02.98 bitrate=2811.9kbits/s speed=0.0134x elapsed=0:03:42.98    \nframe=  181 fps=0.8 q=30.1 size=    1024KiB time=00:00:02.98 bitrate=2811.9kbits/s speed=0.0133x elapsed=0:03:43.55    \nframe=  181 fps=0.8 q=30.1 size=    1024KiB time=00:00:02.98 bitrate=2811.9kbits/s speed=0.0133x elapsed=0:03:44.11    \nframe=  181 fps=0.8 q=30.1 size=    1024KiB time=00:00:02.98 bitrate=2811.9kbits/s speed=0.0133x elapsed=0:03:44.66    \nframe=  181 fps=0.8 q=30.1 size=    1024KiB time=00:00:02.98 bitrate=2811.9kbits/s speed=0.0132x elapsed=0:03:45.21    \nframe=  181 fps=0.8 q=30.1 size=    1024KiB time=00:00:02.98 bitrate=2811.9kbits/s speed=0.0132x elapsed=0:03:45.77    \nframe=  181 fps=0.8 q=30.1 size=    1024KiB time=00:00:02.98 bitrate=2811.9kbits/s speed=0.0132x elapsed=0:03:46.32    \nframe=  181 fps=0.8 q=30.1 size=    1024KiB time=00:00:02.98 bitrate=2811.9kbits/s speed=0.0132x elapsed=0:03:46.85    \nframe=  182 fps=0.8 q=35.0 size=    1024KiB time=00:00:03.00 bitrate=2796.3kbits/s speed=0.0132x elapsed=0:03:47.38    \nframe=  182 fps=0.8 q=35.0 size=    1024KiB time=00:00:03.00 bitrate=2796.3kbits/s speed=0.0132x elapsed=0:03:47.90    \nframe=  183 fps=0.8 q=35.9 size=    1024KiB time=00:00:03.01 bitrate=2780.9kbits/s speed=0.0132x elapsed=0:03:48.41    \nframe=  183 fps=0.8 q=35.9 size=    1024KiB time=00:00:03.01 bitrate=2780.9kbits/s speed=0.0132x elapsed=0:03:48.95    \nframe=  183 fps=0.8 q=35.9 size=    1024KiB time=00:00:03.01 bitrate=2780.9kbits/s speed=0.0131x elapsed=0:03:49.47    \nframe=  183 fps=0.8 q=35.9 size=    1024KiB time=00:00:03.01 bitrate=2780.9kbits/s speed=0.0131x elapsed=0:03:50.02    \nframe=  183 fps=0.8 q=35.9 size=    1024KiB time=00:00:03.01 bitrate=2780.9kbits/s speed=0.0131x elapsed=0:03:50.57    \nframe=  185 fps=0.8 q=33.0 size=    1024KiB time=00:00:03.05 bitrate=2750.5kbits/s speed=0.0132x elapsed=0:03:51.12    \nframe=  185 fps=0.8 q=33.0 size=    1024KiB time=00:00:03.05 bitrate=2750.5kbits/s speed=0.0132x elapsed=0:03:51.67    \nframe=  185 fps=0.8 q=33.0 size=    1024KiB time=00:00:03.05 bitrate=2750.5kbits/s speed=0.0131x elapsed=0:03:52.22    \nframe=  186 fps=0.8 q=35.9 size=    1024KiB time=00:00:03.06 bitrate=2735.5kbits/s speed=0.0132x elapsed=0:03:52.74    \nframe=  186 fps=0.8 q=35.9 size=    1024KiB time=00:00:03.06 bitrate=2735.5kbits/s speed=0.0131x elapsed=0:03:53.26    \nframe=  188 fps=0.8 q=30.6 size=    1024KiB time=00:00:03.10 bitrate=2706.1kbits/s speed=0.0133x elapsed=0:03:53.79    \nframe=  189 fps=0.8 q=35.4 size=    1024KiB time=00:00:03.11 bitrate=2691.6kbits/s speed=0.0133x elapsed=0:03:54.33    \nframe=  189 fps=0.8 q=35.4 size=    1024KiB time=00:00:03.11 bitrate=2691.6kbits/s speed=0.0133x elapsed=0:03:54.88    \nframe=  189 fps=0.8 q=35.4 size=    1024KiB time=00:00:03.11 bitrate=2691.6kbits/s speed=0.0132x elapsed=0:03:55.48    \nframe=  190 fps=0.8 q=35.9 size=    1024KiB time=00:00:03.13 bitrate=2677.3kbits/s speed=0.0133x elapsed=0:03:56.03    \nframe=  190 fps=0.8 q=35.9 size=    1024KiB time=00:00:03.13 bitrate=2677.3kbits/s speed=0.0132x elapsed=0:03:56.56    \nframe=  190 fps=0.8 q=35.9 size=    1024KiB time=00:00:03.13 bitrate=2677.3kbits/s speed=0.0132x elapsed=0:03:57.09    \nframe=  190 fps=0.8 q=35.9 size=    1024KiB time=00:00:03.13 bitrate=2677.3kbits/s speed=0.0132x elapsed=0:03:57.61    \nframe=  190 fps=0.8 q=35.9 size=    1024KiB time=00:00:03.13 bitrate=2677.3kbits/s speed=0.0132x elapsed=0:03:58.15    \nframe=  190 fps=0.8 q=35.9 size=    1024KiB time=00:00:03.13 bitrate=2677.3kbits/s speed=0.0131x elapsed=0:03:58.67    \nframe=  190 fps=0.8 q=35.9 size=    1024KiB time=00:00:03.13 bitrate=2677.3kbits/s speed=0.0131x elapsed=0:03:59.23    \nframe=  190 fps=0.8 q=35.9 size=    1024KiB time=00:00:03.13 bitrate=2677.3kbits/s speed=0.0131x elapsed=0:03:59.75    \nframe=  192 fps=0.8 q=30.1 size=    1024KiB time=00:00:03.16 bitrate=2649.1kbits/s speed=0.0132x elapsed=0:04:00.27    \nframe=  192 fps=0.8 q=30.1 size=    1024KiB time=00:00:03.16 bitrate=2649.1kbits/s speed=0.0132x elapsed=0:04:00.80    \nframe=  193 fps=0.8 q=33.4 size=    1024KiB time=00:00:03.18 bitrate=2635.3kbits/s speed=0.0132x elapsed=0:04:01.33    \nframe=  193 fps=0.8 q=33.4 size=    1024KiB time=00:00:03.18 bitrate=2635.3kbits/s speed=0.0132x elapsed=0:04:01.85    \nframe=  193 fps=0.8 q=33.4 size=    1024KiB time=00:00:03.18 bitrate=2635.3kbits/s speed=0.0131x elapsed=0:04:02.37    \nframe=  194 fps=0.8 q=35.9 size=    1024KiB time=00:00:03.20 bitrate=2621.6kbits/s speed=0.0132x elapsed=0:04:02.89    \nframe=  195 fps=0.8 q=36.7 size=    1024KiB time=00:00:03.21 bitrate=2608.0kbits/s speed=0.0132x elapsed=0:04:03.43    \nframe=  195 fps=0.8 q=36.7 size=    1024KiB time=00:00:03.21 bitrate=2608.0kbits/s speed=0.0132x elapsed=0:04:03.95    \nframe=  195 fps=0.8 q=36.7 size=    1024KiB time=00:00:03.21 bitrate=2608.0kbits/s speed=0.0131x elapsed=0:04:04.63    \nframe=  195 fps=0.8 q=36.7 size=    1024KiB time=00:00:03.21 bitrate=2608.0kbits/s speed=0.0131x elapsed=0:04:05.21    \nframe=  195 fps=0.8 q=36.7 size=    1024KiB time=00:00:03.21 bitrate=2608.0kbits/s speed=0.0131x elapsed=0:04:05.77    \nframe=  196 fps=0.8 q=29.5 size=    1024KiB time=00:00:03.23 bitrate=2594.5kbits/s speed=0.0131x elapsed=0:04:06.30    \nframe=  197 fps=0.8 q=33.9 size=    1024KiB time=00:00:03.25 bitrate=2581.2kbits/s speed=0.0132x elapsed=0:04:06.83    \nframe=  198 fps=0.8 q=36.6 size=    1024KiB time=00:00:03.26 bitrate=2568.0kbits/s speed=0.0132x elapsed=0:04:07.36    \nframe=  198 fps=0.8 q=36.6 size=    1024KiB time=00:00:03.26 bitrate=2568.0kbits/s speed=0.0132x elapsed=0:04:07.89    \nframe=  198 fps=0.8 q=36.6 size=    1024KiB time=00:00:03.26 bitrate=2568.0kbits/s speed=0.0131x elapsed=0:04:08.42    \nframe=  198 fps=0.8 q=36.6 size=    1024KiB time=00:00:03.26 bitrate=2568.0kbits/s speed=0.0131x elapsed=0:04:08.96    \nframe=  199 fps=0.8 q=36.6 size=    1024KiB time=00:00:03.28 bitrate=2555.0kbits/s speed=0.0132x elapsed=0:04:09.47    \nframe=  199 fps=0.8 q=36.6 size=    1024KiB time=00:00:03.28 bitrate=2555.0kbits/s speed=0.0131x elapsed=0:04:10.02    \nframe=  199 fps=0.8 q=36.6 size=    1024KiB time=00:00:03.28 bitrate=2555.0kbits/s speed=0.0131x elapsed=0:04:10.55    \nframe=  200 fps=0.8 q=28.8 size=    1024KiB time=00:00:03.30 bitrate=2542.1kbits/s speed=0.0131x elapsed=0:04:11.11    \nframe=  200 fps=0.8 q=28.8 size=    1024KiB time=00:00:03.30 bitrate=2542.1kbits/s speed=0.0131x elapsed=0:04:11.65    \nframe=  200 fps=0.8 q=28.8 size=    1024KiB time=00:00:03.30 bitrate=2542.1kbits/s speed=0.0131x elapsed=0:04:12.16    \nframe=  200 fps=0.8 q=28.8 size=    1024KiB time=00:00:03.30 bitrate=2542.1kbits/s speed=0.0131x elapsed=0:04:12.75    \nframe=  200 fps=0.8 q=28.8 size=    1024KiB time=00:00:03.30 bitrate=2542.1kbits/s speed=0.013x elapsed=0:04:13.31    \nframe=  201 fps=0.8 q=33.3 size=    1280KiB time=00:00:03.31 bitrate=3161.6kbits/s speed=0.0131x elapsed=0:04:13.85    \nframe=  202 fps=0.8 q=36.8 size=    1280KiB time=00:00:03.33 bitrate=3145.8kbits/s speed=0.0131x elapsed=0:04:14.37    \nframe=  203 fps=0.8 q=29.5 size=    1280KiB time=00:00:03.35 bitrate=3130.2kbits/s speed=0.0131x elapsed=0:04:14.90    \nframe=  204 fps=0.8 q=36.7 size=    1280KiB time=00:00:03.36 bitrate=3114.7kbits/s speed=0.0132x elapsed=0:04:15.41    \nframe=  204 fps=0.8 q=36.7 size=    1280KiB time=00:00:03.36 bitrate=3114.7kbits/s speed=0.0132x elapsed=0:04:15.92    \nframe=  205 fps=0.8 q=36.9 size=    1280KiB time=00:00:03.38 bitrate=3099.3kbits/s speed=0.0132x elapsed=0:04:16.44    \nframe=  206 fps=0.8 q=38.0 size=    1280KiB time=00:00:03.40 bitrate=3084.2kbits/s speed=0.0132x elapsed=0:04:17.01    \nframe=  206 fps=0.8 q=38.0 size=    1280KiB time=00:00:03.40 bitrate=3084.2kbits/s speed=0.0132x elapsed=0:04:17.53    \nframe=  206 fps=0.8 q=38.0 size=    1280KiB time=00:00:03.40 bitrate=3084.2kbits/s speed=0.0132x elapsed=0:04:18.03    \nframe=  209 fps=0.8 q=35.1 size=    1280KiB time=00:00:03.45 bitrate=3039.5kbits/s speed=0.0133x elapsed=0:04:18.59    \nframe=  209 fps=0.8 q=35.1 size=    1280KiB time=00:00:03.45 bitrate=3039.5kbits/s speed=0.0133x elapsed=0:04:19.09    \nframe=  209 fps=0.8 q=35.1 size=    1280KiB time=00:00:03.45 bitrate=3039.5kbits/s speed=0.0133x elapsed=0:04:19.61    \nframe=  210 fps=0.8 q=37.0 size=    1280KiB time=00:00:03.46 bitrate=3024.8kbits/s speed=0.0133x elapsed=0:04:20.14    \nframe=  211 fps=0.8 q=37.0 size=    1280KiB time=00:00:03.48 bitrate=3010.4kbits/s speed=0.0134x elapsed=0:04:20.65    \nframe=  211 fps=0.8 q=37.0 size=    1280KiB time=00:00:03.48 bitrate=3010.4kbits/s speed=0.0133x elapsed=0:04:21.16    \nframe=  213 fps=0.8 q=34.3 size=    1280KiB time=00:00:03.51 bitrate=2981.8kbits/s speed=0.0134x elapsed=0:04:21.69    \nframe=  213 fps=0.8 q=34.3 size=    1280KiB time=00:00:03.51 bitrate=2981.8kbits/s speed=0.0134x elapsed=0:04:22.24    \nframe=  213 fps=0.8 q=34.3 size=    1280KiB time=00:00:03.51 bitrate=2981.8kbits/s speed=0.0134x elapsed=0:04:22.82    \nframe=  214 fps=0.8 q=36.9 size=    1280KiB time=00:00:03.53 bitrate=2967.8kbits/s speed=0.0134x elapsed=0:04:23.35    \nframe=  214 fps=0.8 q=36.9 size=    1280KiB time=00:00:03.53 bitrate=2967.8kbits/s speed=0.0134x elapsed=0:04:23.91    \nframe=  214 fps=0.8 q=36.9 size=    1280KiB time=00:00:03.53 bitrate=2967.8kbits/s speed=0.0134x elapsed=0:04:24.51    \nframe=  214 fps=0.8 q=36.9 size=    1280KiB time=00:00:03.53 bitrate=2967.8kbits/s speed=0.0133x elapsed=0:04:25.04    \nframe=  215 fps=0.8 q=36.9 size=    1280KiB time=00:00:03.55 bitrate=2953.8kbits/s speed=0.0134x elapsed=0:04:25.59    \nframe=  215 fps=0.8 q=36.9 size=    1280KiB time=00:00:03.55 bitrate=2953.8kbits/s speed=0.0133x elapsed=0:04:26.10    \nframe=  215 fps=0.8 q=36.9 size=    1280KiB time=00:00:03.55 bitrate=2953.8kbits/s speed=0.0133x elapsed=0:04:26.66    \nframe=  216 fps=0.8 q=29.6 size=    1280KiB time=00:00:03.56 bitrate=2940.0kbits/s speed=0.0133x elapsed=0:04:27.18    \nframe=  217 fps=0.8 q=33.2 size=    1280KiB time=00:00:03.58 bitrate=2926.4kbits/s speed=0.0134x elapsed=0:04:27.70    \nframe=  217 fps=0.8 q=33.2 size=    1280KiB time=00:00:03.58 bitrate=2926.4kbits/s speed=0.0134x elapsed=0:04:28.22    \nframe=  218 fps=0.8 q=36.5 size=    1280KiB time=00:00:03.60 bitrate=2912.8kbits/s speed=0.0134x elapsed=0:04:28.77    \nframe=  218 fps=0.8 q=36.5 size=    1280KiB time=00:00:03.60 bitrate=2912.8kbits/s speed=0.0134x elapsed=0:04:29.34    \nframe=  219 fps=0.8 q=36.9 size=    1280KiB time=00:00:03.61 bitrate=2899.4kbits/s speed=0.0134x elapsed=0:04:29.87    \nframe=  219 fps=0.8 q=36.9 size=    1280KiB time=00:00:03.61 bitrate=2899.4kbits/s speed=0.0134x elapsed=0:04:30.44    \nframe=  219 fps=0.8 q=36.9 size=    1280KiB time=00:00:03.61 bitrate=2899.4kbits/s speed=0.0133x elapsed=0:04:30.97    \nframe=  221 fps=0.8 q=34.6 size=    1280KiB time=00:00:03.63 bitrate=2886.1kbits/s speed=0.0134x elapsed=0:04:31.51    \nframe=  221 fps=0.8 q=34.6 size=    1280KiB time=00:00:03.65 bitrate=2872.9kbits/s speed=0.0134x elapsed=0:04:32.05    \nframe=  222 fps=0.8 q=36.9 size=    1280KiB time=00:00:03.66 bitrate=2859.8kbits/s speed=0.0135x elapsed=0:04:32.60    \nframe=  223 fps=0.8 q=36.9 size=    1280KiB time=00:00:03.68 bitrate=2846.9kbits/s speed=0.0135x elapsed=0:04:33.12    \nframe=  223 fps=0.8 q=36.9 size=    1280KiB time=00:00:03.68 bitrate=2846.9kbits/s speed=0.0135x elapsed=0:04:33.63    \nframe=  223 fps=0.8 q=36.9 size=    1280KiB time=00:00:03.68 bitrate=2846.9kbits/s speed=0.0134x elapsed=0:04:34.14    \nframe=  224 fps=0.8 q=29.0 size=    1280KiB time=00:00:03.70 bitrate=2834.1kbits/s speed=0.0135x elapsed=0:04:34.66    \nframe=  224 fps=0.8 q=29.0 size=    1280KiB time=00:00:03.70 bitrate=2834.1kbits/s speed=0.0134x elapsed=0:04:35.20    \nframe=  224 fps=0.8 q=29.0 size=    1280KiB time=00:00:03.70 bitrate=2834.1kbits/s speed=0.0134x elapsed=0:04:35.75    \nframe=  224 fps=0.8 q=29.0 size=    1280KiB time=00:00:03.70 bitrate=2834.1kbits/s speed=0.0134x elapsed=0:04:36.31    \nframe=  225 fps=0.8 q=34.7 size=    1280KiB time=00:00:03.71 bitrate=2821.4kbits/s speed=0.0134x elapsed=0:04:36.84    \nframe=  226 fps=0.8 q=37.0 size=    1280KiB time=00:00:03.73 bitrate=2808.8kbits/s speed=0.0135x elapsed=0:04:37.37    \nframe=  226 fps=0.8 q=37.0 size=    1280KiB time=00:00:03.73 bitrate=2808.8kbits/s speed=0.0134x elapsed=0:04:37.89    \nframe=  226 fps=0.8 q=37.0 size=    1280KiB time=00:00:03.73 bitrate=2808.8kbits/s speed=0.0134x elapsed=0:04:38.47    \nframe=  227 fps=0.8 q=29.9 size=    1280KiB time=00:00:03.75 bitrate=2796.3kbits/s speed=0.0134x elapsed=0:04:38.99    \nframe=  228 fps=0.8 q=32.0 size=    1280KiB time=00:00:03.76 bitrate=2783.9kbits/s speed=0.0135x elapsed=0:04:39.51    \nframe=  231 fps=0.8 q=37.9 size=    1280KiB time=00:00:03.81 bitrate=2747.5kbits/s speed=0.0136x elapsed=0:04:40.05    \nframe=  231 fps=0.8 q=37.9 size=    1280KiB time=00:00:03.81 bitrate=2747.5kbits/s speed=0.0136x elapsed=0:04:40.57    \nframe=  231 fps=0.8 q=37.9 size=    1280KiB time=00:00:03.81 bitrate=2747.5kbits/s speed=0.0136x elapsed=0:04:41.09    \nframe=  231 fps=0.8 q=37.9 size=    1280KiB time=00:00:03.81 bitrate=2747.5kbits/s speed=0.0136x elapsed=0:04:41.61    \nframe=  231 fps=0.8 q=37.9 size=    1280KiB time=00:00:03.81 bitrate=2747.5kbits/s speed=0.0135x elapsed=0:04:42.12    \nframe=  232 fps=0.8 q=29.2 size=    1280KiB time=00:00:03.83 bitrate=2735.5kbits/s speed=0.0136x elapsed=0:04:42.64    \nframe=  232 fps=0.8 q=29.2 size=    1280KiB time=00:00:03.83 bitrate=2735.5kbits/s speed=0.0135x elapsed=0:04:43.14    \nframe=  233 fps=0.8 q=35.0 size=    1280KiB time=00:00:03.85 bitrate=2723.7kbits/s speed=0.0136x elapsed=0:04:43.67    \nframe=  235 fps=0.8 q=29.4 size=    1280KiB time=00:00:03.88 bitrate=2700.3kbits/s speed=0.0137x elapsed=0:04:44.21    \nframe=  235 fps=0.8 q=29.4 size=    1280KiB time=00:00:03.88 bitrate=2700.3kbits/s speed=0.0136x elapsed=0:04:44.73    \nframe=  235 fps=0.8 q=29.4 size=    1280KiB time=00:00:03.88 bitrate=2700.3kbits/s speed=0.0136x elapsed=0:04:45.28    \nframe=  235 fps=0.8 q=29.4 size=    1280KiB time=00:00:03.88 bitrate=2700.3kbits/s speed=0.0136x elapsed=0:04:45.85    \nframe=  235 fps=0.8 q=29.4 size=    1280KiB time=00:00:03.88 bitrate=2700.3kbits/s speed=0.0136x elapsed=0:04:46.38    \nframe=  237 fps=0.8 q=36.4 size=    1280KiB time=00:00:03.91 bitrate=2677.3kbits/s speed=0.0137x elapsed=0:04:46.89    \nframe=  238 fps=0.8 q=29.6 size=    1280KiB time=00:00:03.93 bitrate=2666.0kbits/s speed=0.0137x elapsed=0:04:47.42    \nframe=  238 fps=0.8 q=29.6 size=    1280KiB time=00:00:03.93 bitrate=2666.0kbits/s speed=0.0137x elapsed=0:04:47.97    \nframe=  239 fps=0.8 q=35.2 size=    1280KiB time=00:00:03.95 bitrate=2654.7kbits/s speed=0.0137x elapsed=0:04:48.50    \nframe=  240 fps=0.8 q=37.0 size=    1280KiB time=00:00:03.96 bitrate=2643.6kbits/s speed=0.0137x elapsed=0:04:49.02    \nframe=  241 fps=0.8 q=29.6 size=    1280KiB time=00:00:03.98 bitrate=2632.5kbits/s speed=0.0138x elapsed=0:04:49.55    \nframe=  242 fps=0.8 q=34.4 size=    1280KiB time=00:00:04.00 bitrate=2621.5kbits/s speed=0.0138x elapsed=0:04:50.08    \nframe=  242 fps=0.8 q=34.4 size=    1280KiB time=00:00:04.00 bitrate=2621.5kbits/s speed=0.0138x elapsed=0:04:50.66    \nframe=  242 fps=0.8 q=34.4 size=    1280KiB time=00:00:04.00 bitrate=2621.5kbits/s speed=0.0137x elapsed=0:04:51.18    \nframe=  242 fps=0.8 q=34.4 size=    1280KiB time=00:00:04.00 bitrate=2621.5kbits/s speed=0.0137x elapsed=0:04:51.79    \nframe=  243 fps=0.8 q=36.8 size=    1280KiB time=00:00:04.01 bitrate=2610.7kbits/s speed=0.0137x elapsed=0:04:52.44    \nframe=  243 fps=0.8 q=36.8 size=    1280KiB time=00:00:04.01 bitrate=2610.7kbits/s speed=0.0137x elapsed=0:04:52.97    \nframe=  245 fps=0.8 q=36.7 size=    1280KiB time=00:00:04.05 bitrate=2589.2kbits/s speed=0.0138x elapsed=0:04:53.52    \nframe=  245 fps=0.8 q=36.7 size=    1280KiB time=00:00:04.05 bitrate=2589.2kbits/s speed=0.0138x elapsed=0:04:54.08    \nframe=  245 fps=0.8 q=36.7 size=    1280KiB time=00:00:04.05 bitrate=2589.2kbits/s speed=0.0137x elapsed=0:04:54.62    \nframe=  245 fps=0.8 q=36.7 size=    1280KiB time=00:00:04.05 bitrate=2589.2kbits/s speed=0.0137x elapsed=0:04:55.23    \nframe=  245 fps=0.8 q=36.7 size=    1280KiB time=00:00:04.05 bitrate=2589.2kbits/s speed=0.0137x elapsed=0:04:55.91    \nframe=  245 fps=0.8 q=36.7 size=    1280KiB time=00:00:04.05 bitrate=2589.2kbits/s speed=0.0137x elapsed=0:04:56.51    \nframe=  245 fps=0.8 q=36.7 size=    1280KiB time=00:00:04.05 bitrate=2589.2kbits/s speed=0.0136x elapsed=0:04:57.08    \nframe=  245 fps=0.8 q=36.7 size=    1280KiB time=00:00:04.05 bitrate=2589.2kbits/s speed=0.0136x elapsed=0:04:57.72    \nframe=  245 fps=0.8 q=36.7 size=    1280KiB time=00:00:04.05 bitrate=2589.2kbits/s speed=0.0136x elapsed=0:04:58.28    \nframe=  246 fps=0.8 q=37.0 size=    1280KiB time=00:00:04.06 bitrate=2578.6kbits/s speed=0.0136x elapsed=0:04:58.84    \nframe=  246 fps=0.8 q=37.0 size=    1280KiB time=00:00:04.06 bitrate=2578.6kbits/s speed=0.0136x elapsed=0:04:59.36    \nframe=  246 fps=0.8 q=37.0 size=    1280KiB time=00:00:04.06 bitrate=2578.6kbits/s speed=0.0136x elapsed=0:04:59.96    \nframe=  246 fps=0.8 q=37.0 size=    1280KiB time=00:00:04.06 bitrate=2578.6kbits/s speed=0.0135x elapsed=0:05:00.55    \nframe=  247 fps=0.8 q=37.9 size=    1280KiB time=00:00:04.08 bitrate=2568.0kbits/s speed=0.0136x elapsed=0:05:01.08    \nframe=  248 fps=0.8 q=29.6 size=    1280KiB time=00:00:04.10 bitrate=2557.6kbits/s speed=0.0136x elapsed=0:05:01.59    \nframe=  248 fps=0.8 q=29.6 size=    1280KiB time=00:00:04.10 bitrate=2557.6kbits/s speed=0.0136x elapsed=0:05:02.12    \nframe=  249 fps=0.8 q=35.6 size=    1536KiB time=00:00:04.11 bitrate=3056.7kbits/s speed=0.0136x elapsed=0:05:02.68    \nframe=  249 fps=0.8 q=35.6 size=    1536KiB time=00:00:04.11 bitrate=3056.7kbits/s speed=0.0136x elapsed=0:05:03.20    \nframe=  250 fps=0.8 q=38.0 size=    1536KiB time=00:00:04.13 bitrate=3044.3kbits/s speed=0.0136x elapsed=0:05:03.77    \nframe=  250 fps=0.8 q=38.0 size=    1536KiB time=00:00:04.13 bitrate=3044.3kbits/s speed=0.0136x elapsed=0:05:04.30    \nframe=  251 fps=0.8 q=28.7 size=    1536KiB time=00:00:04.15 bitrate=3032.1kbits/s speed=0.0136x elapsed=0:05:04.81    \nframe=  251 fps=0.8 q=28.7 size=    1536KiB time=00:00:04.15 bitrate=3032.1kbits/s speed=0.0136x elapsed=0:05:05.34    \nframe=  252 fps=0.8 q=30.0 size=    1536KiB time=00:00:04.16 bitrate=3020.0kbits/s speed=0.0136x elapsed=0:05:05.88    \nframe=  253 fps=0.8 q=36.8 size=    1536KiB time=00:00:04.18 bitrate=3008.0kbits/s speed=0.0137x elapsed=0:05:06.42    \nframe=  253 fps=0.8 q=36.8 size=    1536KiB time=00:00:04.18 bitrate=3008.0kbits/s speed=0.0136x elapsed=0:05:06.95    \nframe=  255 fps=0.8 q=28.9 size=    1536KiB time=00:00:04.21 bitrate=2984.2kbits/s speed=0.0137x elapsed=0:05:07.47    \nframe=  256 fps=0.8 q=34.9 size=    1536KiB time=00:00:04.23 bitrate=2972.4kbits/s speed=0.0137x elapsed=0:05:07.98    \nframe=  257 fps=0.8 q=36.9 size=    1536KiB time=00:00:04.25 bitrate=2960.8kbits/s speed=0.0138x elapsed=0:05:08.52    \nframe=  257 fps=0.8 q=36.9 size=    1536KiB time=00:00:04.25 bitrate=2960.8kbits/s speed=0.0138x elapsed=0:05:09.03    \nframe=  257 fps=0.8 q=36.9 size=    1536KiB time=00:00:04.25 bitrate=2960.8kbits/s speed=0.0137x elapsed=0:05:09.55    \nframe=  258 fps=0.8 q=28.8 size=    1536KiB time=00:00:04.26 bitrate=2949.2kbits/s speed=0.0138x elapsed=0:05:10.07    \nframe=  258 fps=0.8 q=28.8 size=    1536KiB time=00:00:04.26 bitrate=2949.2kbits/s speed=0.0137x elapsed=0:05:10.61    \nframe=  258 fps=0.8 q=28.8 size=    1536KiB time=00:00:04.26 bitrate=2949.2kbits/s speed=0.0137x elapsed=0:05:11.11    \nframe=  258 fps=0.8 q=28.8 size=    1536KiB time=00:00:04.26 bitrate=2949.2kbits/s speed=0.0137x elapsed=0:05:11.63    \nframe=  259 fps=0.8 q=35.9 size=    1536KiB time=00:00:04.28 bitrate=2937.7kbits/s speed=0.0137x elapsed=0:05:12.19    \nframe=  259 fps=0.8 q=35.9 size=    1536KiB time=00:00:04.28 bitrate=2937.7kbits/s speed=0.0137x elapsed=0:05:12.71    \nframe=  259 fps=0.8 q=35.9 size=    1536KiB time=00:00:04.28 bitrate=2937.7kbits/s speed=0.0137x elapsed=0:05:13.28    \nframe=  259 fps=0.8 q=35.9 size=    1536KiB time=00:00:04.28 bitrate=2937.7kbits/s speed=0.0136x elapsed=0:05:13.83    \nframe=  259 fps=0.8 q=35.9 size=    1536KiB time=00:00:04.28 bitrate=2937.7kbits/s speed=0.0136x elapsed=0:05:14.35    \nframe=  259 fps=0.8 q=35.9 size=    1536KiB time=00:00:04.28 bitrate=2937.7kbits/s speed=0.0136x elapsed=0:05:14.89    \nframe=  259 fps=0.8 q=35.9 size=    1536KiB time=00:00:04.28 bitrate=2937.7kbits/s speed=0.0136x elapsed=0:05:15.42    \nframe=  259 fps=0.8 q=35.9 size=    1536KiB time=00:00:04.28 bitrate=2937.7kbits/s speed=0.0136x elapsed=0:05:15.97    \nframe=  260 fps=0.8 q=29.4 size=    1536KiB time=00:00:04.28 bitrate=2937.7kbits/s speed=0.0135x elapsed=0:05:16.52    \nframe=  260 fps=0.8 q=29.4 size=    1536KiB time=00:00:04.30 bitrate=2926.3kbits/s speed=0.0136x elapsed=0:05:17.11    \nframe=  261 fps=0.8 q=34.8 size=    1536KiB time=00:00:04.31 bitrate=2915.0kbits/s speed=0.0136x elapsed=0:05:17.65    \nframe=  262 fps=0.8 q=36.7 size=    1536KiB time=00:00:04.33 bitrate=2903.8kbits/s speed=0.0136x elapsed=0:05:18.19    \nframe=  262 fps=0.8 q=36.7 size=    1536KiB time=00:00:04.33 bitrate=2903.8kbits/s speed=0.0136x elapsed=0:05:18.69    \nframe=  262 fps=0.8 q=36.7 size=    1536KiB time=00:00:04.33 bitrate=2903.8kbits/s speed=0.0136x elapsed=0:05:19.21    \nframe=  262 fps=0.8 q=36.7 size=    1536KiB time=00:00:04.33 bitrate=2903.8kbits/s speed=0.0136x elapsed=0:05:19.74    \nframe=  262 fps=0.8 q=36.7 size=    1536KiB time=00:00:04.33 bitrate=2903.8kbits/s speed=0.0135x elapsed=0:05:20.27    \nframe=  263 fps=0.8 q=41.0 size=    1536KiB time=00:00:04.35 bitrate=2892.7kbits/s speed=0.0136x elapsed=0:05:20.80    \nframe=  263 fps=0.8 q=41.0 size=    1536KiB time=00:00:04.35 bitrate=2892.7kbits/s speed=0.0135x elapsed=0:05:21.31    \nframe=  263 fps=0.8 q=41.0 size=    1536KiB time=00:00:04.35 bitrate=2892.7kbits/s speed=0.0135x elapsed=0:05:21.87    \nframe=  264 fps=0.8 q=41.0 size=    1536KiB time=00:00:04.36 bitrate=2881.7kbits/s speed=0.0135x elapsed=0:05:22.39    \nframe=  264 fps=0.8 q=41.0 size=    1536KiB time=00:00:04.36 bitrate=2881.7kbits/s speed=0.0135x elapsed=0:05:22.91    \nframe=  264 fps=0.8 q=41.0 size=    1536KiB time=00:00:04.36 bitrate=2881.7kbits/s speed=0.0135x elapsed=0:05:23.43    \nframe=  264 fps=0.8 q=41.0 size=    1536KiB time=00:00:04.36 bitrate=2881.7kbits/s speed=0.0135x elapsed=0:05:23.95    \nframe=  264 fps=0.8 q=41.0 size=    1536KiB time=00:00:04.36 bitrate=2881.7kbits/s speed=0.0135x elapsed=0:05:24.48    \nframe=  266 fps=0.8 q=40.9 size=    1536KiB time=00:00:04.40 bitrate=2859.8kbits/s speed=0.0135x elapsed=0:05:25.01    \nframe=  267 fps=0.8 q=41.8 size=    1536KiB time=00:00:04.41 bitrate=2849.0kbits/s speed=0.0136x elapsed=0:05:25.55    \nframe=  267 fps=0.8 q=41.8 size=    1536KiB time=00:00:04.41 bitrate=2849.0kbits/s speed=0.0135x elapsed=0:05:26.07    \nframe=  267 fps=0.8 q=41.8 size=    1536KiB time=00:00:04.41 bitrate=2849.0kbits/s speed=0.0135x elapsed=0:05:26.62    \nframe=  267 fps=0.8 q=41.8 size=    1536KiB time=00:00:04.41 bitrate=2849.0kbits/s speed=0.0135x elapsed=0:05:27.19    \nframe=  267 fps=0.8 q=41.8 size=    1536KiB time=00:00:04.41 bitrate=2849.0kbits/s speed=0.0135x elapsed=0:05:27.71    \nframe=  267 fps=0.8 q=41.8 size=    1536KiB time=00:00:04.41 bitrate=2849.0kbits/s speed=0.0135x elapsed=0:05:28.25    \nframe=  269 fps=0.8 q=43.0 size=    1536KiB time=00:00:04.45 bitrate=2827.7kbits/s speed=0.0135x elapsed=0:05:28.81    \nframe=  269 fps=0.8 q=43.0 size=    1536KiB time=00:00:04.45 bitrate=2827.7kbits/s speed=0.0135x elapsed=0:05:29.31    \nframe=  270 fps=0.8 q=35.8 size=    1536KiB time=00:00:04.46 bitrate=2817.1kbits/s speed=0.0135x elapsed=0:05:29.85    \nframe=  271 fps=0.8 q=42.8 size=    1536KiB time=00:00:04.48 bitrate=2806.7kbits/s speed=0.0136x elapsed=0:05:30.39    \nframe=  271 fps=0.8 q=42.8 size=    1536KiB time=00:00:04.48 bitrate=2806.7kbits/s speed=0.0135x elapsed=0:05:30.92    \nframe=  271 fps=0.8 q=42.8 size=    1536KiB time=00:00:04.48 bitrate=2806.7kbits/s speed=0.0135x elapsed=0:05:31.44    \nframe=  272 fps=0.8 q=43.0 size=    1536KiB time=00:00:04.50 bitrate=2796.3kbits/s speed=0.0136x elapsed=0:05:31.95    \nframe=  272 fps=0.8 q=43.0 size=    1536KiB time=00:00:04.50 bitrate=2796.3kbits/s speed=0.0135x elapsed=0:05:32.48    \nframe=  272 fps=0.8 q=43.0 size=    1536KiB time=00:00:04.50 bitrate=2796.3kbits/s speed=0.0135x elapsed=0:05:33.00    \nframe=  272 fps=0.8 q=43.0 size=    1536KiB time=00:00:04.50 bitrate=2796.3kbits/s speed=0.0135x elapsed=0:05:33.52    \nframe=  272 fps=0.8 q=43.0 size=    1536KiB time=00:00:04.50 bitrate=2796.3kbits/s speed=0.0135x elapsed=0:05:34.04    \nframe=  272 fps=0.8 q=43.0 size=    1536KiB time=00:00:04.50 bitrate=2796.3kbits/s speed=0.0135x elapsed=0:05:34.56    \nframe=  272 fps=0.8 q=43.0 size=    1536KiB time=00:00:04.50 bitrate=2796.3kbits/s speed=0.0134x elapsed=0:05:35.07    \nframe=  273 fps=0.8 q=43.0 size=    1536KiB time=00:00:04.51 bitrate=2786.0kbits/s speed=0.0135x elapsed=0:05:35.62    \nframe=  273 fps=0.8 q=43.0 size=    1536KiB time=00:00:04.51 bitrate=2786.0kbits/s speed=0.0134x elapsed=0:05:36.16    \nframe=  273 fps=0.8 q=43.0 size=    1536KiB time=00:00:04.51 bitrate=2786.0kbits/s speed=0.0134x elapsed=0:05:36.71    \nframe=  273 fps=0.8 q=43.0 size=    1536KiB time=00:00:04.51 bitrate=2786.0kbits/s speed=0.0134x elapsed=0:05:37.24    \nframe=  274 fps=0.8 q=34.3 size=    1536KiB time=00:00:04.53 bitrate=2775.7kbits/s speed=0.0134x elapsed=0:05:37.75    \nframe=  275 fps=0.8 q=40.8 size=    1536KiB time=00:00:04.55 bitrate=2765.6kbits/s speed=0.0135x elapsed=0:05:38.27    \nframe=  276 fps=0.8 q=42.9 size=    1536KiB time=00:00:04.56 bitrate=2755.5kbits/s speed=0.0135x elapsed=0:05:38.80    \nframe=  276 fps=0.8 q=42.9 size=    1536KiB time=00:00:04.56 bitrate=2755.5kbits/s speed=0.0135x elapsed=0:05:39.34    \nframe=  276 fps=0.8 q=42.9 size=    1536KiB time=00:00:04.56 bitrate=2755.5kbits/s speed=0.0134x elapsed=0:05:39.87    \nframe=  277 fps=0.8 q=43.0 size=    1536KiB time=00:00:04.58 bitrate=2745.4kbits/s speed=0.0135x elapsed=0:05:40.39    \nframe=  277 fps=0.8 q=43.0 size=    1536KiB time=00:00:04.58 bitrate=2745.4kbits/s speed=0.0134x elapsed=0:05:40.91    \nframe=  277 fps=0.8 q=43.0 size=    1536KiB time=00:00:04.58 bitrate=2745.4kbits/s speed=0.0134x elapsed=0:05:41.46    \nframe=  278 fps=0.8 q=42.9 size=    1536KiB time=00:00:04.60 bitrate=2735.5kbits/s speed=0.0135x elapsed=0:05:41.97    \nframe=  278 fps=0.8 q=42.9 size=    1536KiB time=00:00:04.60 bitrate=2735.5kbits/s speed=0.0134x elapsed=0:05:42.49    \nframe=  278 fps=0.8 q=42.9 size=    1536KiB time=00:00:04.60 bitrate=2735.5kbits/s speed=0.0134x elapsed=0:05:43.03    \nframe=  279 fps=0.8 q=34.8 size=    1536KiB time=00:00:04.61 bitrate=2725.6kbits/s speed=0.0134x elapsed=0:05:43.55    \nframe=  280 fps=0.8 q=41.1 size=    1792KiB time=00:00:04.63 bitrate=3168.4kbits/s speed=0.0135x elapsed=0:05:44.09    \nframe=  281 fps=0.8 q=42.0 size=    1792KiB time=00:00:04.65 bitrate=3157.1kbits/s speed=0.0135x elapsed=0:05:44.62    \nframe=  282 fps=0.8 q=43.0 size=    1792KiB time=00:00:04.66 bitrate=3145.8kbits/s speed=0.0135x elapsed=0:05:45.13    \nframe=  283 fps=0.8 q=43.0 size=    1792KiB time=00:00:04.68 bitrate=3134.6kbits/s speed=0.0135x elapsed=0:05:45.65    \nframe=  283 fps=0.8 q=43.0 size=    1792KiB time=00:00:04.68 bitrate=3134.6kbits/s speed=0.0135x elapsed=0:05:46.19    \nframe=  283 fps=0.8 q=43.0 size=    1792KiB time=00:00:04.68 bitrate=3134.6kbits/s speed=0.0135x elapsed=0:05:46.69    \nframe=  284 fps=0.8 q=35.1 size=    1792KiB time=00:00:04.70 bitrate=3123.5kbits/s speed=0.0135x elapsed=0:05:47.21    \nframe=  285 fps=0.8 q=41.8 size=    1792KiB time=00:00:04.71 bitrate=3112.5kbits/s speed=0.0136x elapsed=0:05:47.72    \nframe=  285 fps=0.8 q=41.8 size=    1792KiB time=00:00:04.71 bitrate=3112.5kbits/s speed=0.0135x elapsed=0:05:48.24    \nframe=  285 fps=0.8 q=41.8 size=    1792KiB time=00:00:04.71 bitrate=3112.5kbits/s speed=0.0135x elapsed=0:05:48.75    \nframe=  286 fps=0.8 q=42.9 size=    1792KiB time=00:00:04.73 bitrate=3101.5kbits/s speed=0.0136x elapsed=0:05:49.28    \nframe=  286 fps=0.8 q=42.9 size=    1792KiB time=00:00:04.73 bitrate=3101.5kbits/s speed=0.0135x elapsed=0:05:49.82    \nframe=  286 fps=0.8 q=42.9 size=    1792KiB time=00:00:04.73 bitrate=3101.5kbits/s speed=0.0135x elapsed=0:05:50.38    \nframe=  286 fps=0.8 q=42.9 size=    1792KiB time=00:00:04.73 bitrate=3101.5kbits/s speed=0.0135x elapsed=0:05:50.91    \nframe=  286 fps=0.8 q=42.9 size=    1792KiB time=00:00:04.73 bitrate=3101.5kbits/s speed=0.0135x elapsed=0:05:51.46    \nframe=  287 fps=0.8 q=42.9 size=    1792KiB time=00:00:04.75 bitrate=3090.6kbits/s speed=0.0135x elapsed=0:05:52.00    \nframe=  288 fps=0.8 q=31.2 size=    1792KiB time=00:00:04.76 bitrate=3079.8kbits/s speed=0.0135x elapsed=0:05:52.52    \nframe=  289 fps=0.8 q=40.6 size=    1792KiB time=00:00:04.78 bitrate=3069.1kbits/s speed=0.0135x elapsed=0:05:53.05    \nframe=  289 fps=0.8 q=40.6 size=    1792KiB time=00:00:04.78 bitrate=3069.1kbits/s speed=0.0135x elapsed=0:05:53.57    \nframe=  290 fps=0.8 q=39.7 size=    1792KiB time=00:00:04.80 bitrate=3058.4kbits/s speed=0.0136x elapsed=0:05:54.08    \nframe=  291 fps=0.8 q=39.9 size=    1792KiB time=00:00:04.81 bitrate=3047.8kbits/s speed=0.0136x elapsed=0:05:54.60    \nframe=  292 fps=0.8 q=31.9 size=    1792KiB time=00:00:04.83 bitrate=3037.3kbits/s speed=0.0136x elapsed=0:05:55.12    \nframe=  294 fps=0.8 q=38.0 size=    1792KiB time=00:00:04.86 bitrate=3016.5kbits/s speed=0.0137x elapsed=0:05:55.63    \nframe=  295 fps=0.8 q=38.8 size=    1792KiB time=00:00:04.88 bitrate=3006.2kbits/s speed=0.0137x elapsed=0:05:56.15    \nframe=  295 fps=0.8 q=38.8 size=    1792KiB time=00:00:04.88 bitrate=3006.2kbits/s speed=0.0137x elapsed=0:05:56.66    \nframe=  297 fps=0.8 q=34.2 size=    1792KiB time=00:00:04.91 bitrate=2985.8kbits/s speed=0.0138x elapsed=0:05:57.18    \n[mp4 @ 0000016ea311ad40] Starting second pass: moving the moov atom to the beginning of the file\n[out#0/mp4 @ 0000016ea311ac40] video:1893KiB audio:0KiB subtitle:0KiB other streams:0KiB global headers:2KiB muxing overhead: 0.364023%\nframe=  300 fps=0.8 q=36.8 Lsize=    1900KiB time=00:00:04.96 bitrate=3134.4kbits/s speed=0.0139x elapsed=0:05:57.44    \nx265 [info]: frame I:      2, Avg QP:31.76  kb/s: 17638.56\nx265 [info]: frame P:     73, Avg QP:29.49  kb/s: 10931.28\nx265 [info]: frame B:    225, Avg QP:35.38  kb/s: 430.36  \nx265 [info]: Weighted P-Frames: Y:0.0% UV:0.0%\n\nencoded 300 frames in 357.21s (0.84 fps), 3100.30 kb/s, Avg QP:33.92\n",
  "seconds": 357.70138788223267,
  "probe_out": {}
}